<svg width="360" height="526" viewBox="0 0 360 526" fill="none" xmlns="http://www.w3.org/2000/svg">
<path d="M342.29 25.7467H159.616C147.004 25.7467 136.78 38.1593 136.78 53.4711V521.69C136.78 537.002 147.004 549.415 159.616 549.415H342.29C354.902 549.415 365.126 537.002 365.126 521.69V53.4711C365.126 38.1593 354.902 25.7467 342.29 25.7467Z" fill="#263238"/>
<path d="M354.972 83.2503H146.922V491.911H354.972V83.2503Z" fill="white" stroke="#263238" stroke-width="1.33739" stroke-miterlimit="10"/>
<path d="M282.84 248.729C300.451 227.348 300.451 192.682 282.84 171.301C265.229 149.92 236.676 149.92 219.065 171.301C201.454 192.682 201.454 227.348 219.065 248.729C236.676 270.11 265.229 270.11 282.84 248.729Z" fill="#98DAD9"/>
<path d="M310.158 466.213H191.76C191.493 466.215 191.229 466.153 190.982 466.03C190.736 465.908 190.512 465.727 190.323 465.499C190.134 465.271 189.984 465 189.881 464.701C189.779 464.403 189.726 464.082 189.726 463.759C189.725 463.434 189.776 463.112 189.878 462.812C189.98 462.511 190.129 462.239 190.318 462.009C190.508 461.779 190.732 461.598 190.98 461.474C191.227 461.351 191.492 461.288 191.76 461.29H310.158C310.425 461.29 310.688 461.354 310.934 461.478C311.18 461.603 311.404 461.785 311.592 462.014C311.78 462.243 311.928 462.516 312.029 462.815C312.13 463.115 312.181 463.435 312.18 463.759C312.18 464.41 311.967 465.034 311.588 465.494C311.208 465.954 310.694 466.213 310.158 466.213Z" fill="#98DAD9"/>
<path d="M314.013 295.543H187.893C185.29 295.543 183.18 298.105 183.18 301.265V319.315C183.18 322.475 185.29 325.037 187.893 325.037H314.013C316.616 325.037 318.726 322.475 318.726 319.315V301.265C318.726 298.105 316.616 295.543 314.013 295.543Z" fill="#98DAD9"/>
<path d="M314.013 350.706H187.893C185.29 350.706 183.18 353.268 183.18 356.428V374.478C183.18 377.638 185.29 380.2 187.893 380.2H314.013C316.616 380.2 318.726 377.638 318.726 374.478V356.428C318.726 353.268 316.616 350.706 314.013 350.706Z" fill="#98DAD9"/>
<path d="M273.407 237.326L260.138 228.051V220.389C262.059 217.566 263.451 214.27 264.216 210.729C264.673 210.925 265.154 211.027 265.638 211.028C267.284 211.028 268.33 204.835 268.506 200.412C270.422 195.489 267.812 192.607 267.812 192.607C267.812 192.607 268.894 191.294 269.611 186.029C270.328 180.764 267.084 182.961 264.557 178.138C262.03 173.315 260.22 168.065 251.923 168.065C249.636 167.973 247.38 168.719 245.448 170.205C243.515 171.691 241.996 173.849 241.086 176.398C239.021 176.407 236.963 176.699 234.951 177.268C232.413 178.138 231.696 188.226 233.858 192.179C234.826 194.339 235.343 196.755 235.363 199.214C234.787 198.357 234.188 198.129 233.858 200.07C233.142 204.45 236.033 210.586 236.033 210.586L237.525 210.072C238.277 213.857 239.728 217.385 241.768 220.389V228.051L228.499 237.326C226.95 238.412 225.662 239.974 224.767 241.855C223.872 243.736 223.4 245.869 223.398 248.042V253.35C231.29 260.751 240.981 264.766 250.953 264.766C260.925 264.766 270.616 260.751 278.508 253.35V248.042C278.509 245.869 278.037 243.734 277.142 241.852C276.246 239.971 274.958 238.41 273.407 237.326Z" fill="#263238"/>
<path d="M200.351 372.866C200.047 372.861 199.756 372.712 199.54 372.452C199.424 372.327 199.332 372.173 199.269 372C199.206 371.828 199.175 371.642 199.176 371.453C199.179 371.196 199.24 370.944 199.352 370.726L201.468 366.616L197.342 366.773C197.187 366.785 197.031 366.757 196.885 366.69C196.739 366.624 196.607 366.521 196.496 366.388C196.304 366.127 196.199 365.789 196.199 365.439C196.199 365.089 196.304 364.751 196.496 364.49C196.604 364.352 196.736 364.245 196.882 364.176C197.029 364.107 197.186 364.078 197.342 364.091L201.409 364.276L199.317 360.181C199.203 359.958 199.142 359.701 199.14 359.439C199.139 359.251 199.171 359.064 199.234 358.892C199.297 358.72 199.389 358.566 199.505 358.44C199.721 358.18 200.011 358.032 200.316 358.026C200.516 358.028 200.712 358.098 200.88 358.23C201.049 358.361 201.183 358.548 201.268 358.768L203.277 363.177L205.264 358.797C205.358 358.563 205.503 358.365 205.683 358.224C205.863 358.083 206.072 358.005 206.286 357.998C206.435 357.999 206.581 358.037 206.717 358.111C206.853 358.185 206.974 358.292 207.074 358.426C207.289 358.697 207.408 359.062 207.403 359.439C207.402 359.684 207.349 359.925 207.25 360.138L205.123 364.276L209.248 364.091C209.404 364.078 209.561 364.107 209.708 364.176C209.854 364.245 209.986 364.352 210.094 364.49C210.294 364.743 210.404 365.081 210.4 365.432C210.399 365.785 210.29 366.126 210.094 366.388C209.983 366.521 209.851 366.624 209.705 366.69C209.559 366.757 209.403 366.785 209.248 366.773L205.099 366.616L207.168 370.683C207.284 370.91 207.345 371.172 207.344 371.439C207.344 371.817 207.22 372.18 207 372.448C206.779 372.716 206.48 372.866 206.169 372.866C205.967 372.863 205.771 372.788 205.604 372.651C205.437 372.514 205.306 372.321 205.228 372.095L203.266 367.815L201.315 372.095C201.228 372.319 201.092 372.51 200.922 372.646C200.752 372.782 200.555 372.858 200.351 372.866Z" fill="#263238"/>
<path d="M219.414 372.866C219.11 372.861 218.819 372.712 218.603 372.452C218.488 372.327 218.395 372.173 218.332 372C218.27 371.828 218.238 371.642 218.239 371.453C218.242 371.196 218.303 370.944 218.415 370.726L220.531 366.616L216.417 366.773C216.26 366.782 216.103 366.752 215.956 366.686C215.809 366.62 215.674 366.518 215.559 366.388C215.403 366.192 215.299 365.945 215.261 365.677C215.222 365.408 215.251 365.132 215.344 364.885C215.437 364.637 215.588 364.429 215.78 364.287C215.971 364.145 216.193 364.077 216.417 364.091L220.472 364.276L218.38 360.181C218.266 359.958 218.205 359.701 218.204 359.439C218.202 359.251 218.234 359.064 218.297 358.892C218.36 358.72 218.452 358.566 218.568 358.44C218.784 358.18 219.075 358.032 219.379 358.026C219.579 358.028 219.775 358.098 219.943 358.23C220.112 358.361 220.246 358.548 220.331 358.768L222.341 363.177L224.327 358.797C224.421 358.563 224.566 358.365 224.746 358.224C224.927 358.083 225.135 358.005 225.349 357.998C225.498 357.997 225.645 358.035 225.781 358.109C225.917 358.182 226.038 358.291 226.137 358.426C226.246 358.559 226.332 358.717 226.39 358.891C226.449 359.065 226.478 359.251 226.478 359.439C226.473 359.685 226.417 359.926 226.313 360.138L224.186 364.276L228.323 364.119C228.478 364.106 228.633 364.136 228.777 364.205C228.921 364.274 229.051 364.381 229.157 364.519C229.358 364.771 229.467 365.11 229.463 365.46C229.462 365.814 229.353 366.155 229.157 366.416C229.049 366.549 228.918 366.652 228.774 366.718C228.63 366.785 228.476 366.813 228.323 366.802L224.162 366.645L226.231 370.711C226.347 370.938 226.408 371.2 226.407 371.468C226.407 371.846 226.283 372.209 226.063 372.477C225.842 372.744 225.543 372.894 225.232 372.894C225.03 372.891 224.834 372.817 224.667 372.68C224.5 372.543 224.369 372.35 224.292 372.124L222.329 367.843L220.378 372.124C220.288 372.342 220.151 372.527 219.981 372.658C219.811 372.788 219.615 372.86 219.414 372.866Z" fill="#263238"/>
<path d="M238.489 372.866C238.181 372.864 237.885 372.716 237.666 372.452C237.551 372.327 237.458 372.173 237.396 372C237.333 371.828 237.301 371.642 237.302 371.453C237.306 371.196 237.367 370.944 237.478 370.726L239.594 366.616L235.48 366.773C235.259 366.784 235.04 366.714 234.851 366.573C234.662 366.432 234.512 366.226 234.42 365.981C234.328 365.736 234.298 365.464 234.334 365.198C234.37 364.933 234.471 364.686 234.622 364.49C234.733 364.353 234.867 364.246 235.016 364.177C235.164 364.108 235.322 364.079 235.48 364.091L239.535 364.276L237.443 360.181C237.329 359.958 237.268 359.701 237.267 359.439C237.27 359.252 237.305 359.067 237.367 358.896C237.43 358.724 237.519 358.569 237.631 358.44C237.85 358.176 238.145 358.028 238.454 358.026C238.652 358.031 238.845 358.102 239.012 358.234C239.178 358.365 239.31 358.55 239.394 358.768L241.404 363.177L243.39 358.797C243.484 358.563 243.629 358.365 243.81 358.224C243.99 358.083 244.198 358.005 244.413 357.998C244.561 357.997 244.708 358.035 244.844 358.109C244.98 358.182 245.101 358.291 245.2 358.426C245.309 358.559 245.395 358.717 245.454 358.891C245.512 359.065 245.542 359.251 245.541 359.439C245.537 359.685 245.48 359.926 245.376 360.138L243.249 364.276L247.386 364.091C247.538 364.072 247.692 364.093 247.836 364.153C247.981 364.213 248.114 364.309 248.225 364.436C248.336 364.564 248.424 364.718 248.482 364.89C248.54 365.062 248.567 365.246 248.561 365.432C248.564 365.784 248.459 366.124 248.267 366.388C248.157 366.521 248.024 366.624 247.878 366.69C247.732 366.757 247.577 366.785 247.421 366.773L243.272 366.616L245.329 370.683C245.445 370.91 245.506 371.172 245.506 371.439C245.502 371.626 245.468 371.811 245.405 371.982C245.343 372.154 245.253 372.309 245.141 372.438C245.039 372.571 244.915 372.678 244.778 372.752C244.641 372.825 244.492 372.864 244.342 372.866C244.142 372.862 243.948 372.787 243.783 372.65C243.618 372.513 243.489 372.32 243.414 372.095L241.439 367.815L239.488 372.095C239.4 372.327 239.259 372.522 239.082 372.659C238.905 372.796 238.699 372.868 238.489 372.866Z" fill="#263238"/>
<path d="M257.552 372.866C257.244 372.864 256.948 372.716 256.73 372.452C256.508 372.189 256.381 371.83 256.377 371.453C256.373 371.197 256.43 370.944 256.542 370.726L258.657 366.616L254.544 366.773C254.387 366.782 254.23 366.752 254.082 366.686C253.935 366.62 253.8 366.518 253.686 366.388C253.494 366.127 253.388 365.789 253.388 365.439C253.388 365.089 253.494 364.751 253.686 364.49C253.799 364.357 253.934 364.253 254.081 364.184C254.228 364.116 254.386 364.084 254.544 364.091L258.61 364.276L256.53 360.181C256.416 359.958 256.355 359.701 256.353 359.439C256.357 359.252 256.391 359.067 256.454 358.896C256.516 358.724 256.606 358.569 256.718 358.44C256.937 358.176 257.232 358.028 257.54 358.026C257.741 358.028 257.937 358.098 258.105 358.23C258.274 358.361 258.408 358.548 258.492 358.768L260.49 363.177L262.477 358.797C262.571 358.563 262.716 358.365 262.896 358.224C263.076 358.083 263.285 358.005 263.499 357.998C263.648 357.997 263.795 358.035 263.931 358.109C264.067 358.182 264.188 358.291 264.287 358.426C264.396 358.559 264.482 358.717 264.54 358.891C264.599 359.065 264.628 359.251 264.627 359.439C264.623 359.685 264.567 359.926 264.463 360.138L262.336 364.276L266.473 364.091C266.625 364.072 266.778 364.093 266.923 364.153C267.068 364.213 267.2 364.309 267.312 364.436C267.423 364.564 267.511 364.718 267.569 364.89C267.627 365.062 267.654 365.246 267.648 365.432C267.65 365.784 267.546 366.124 267.354 366.388C267.243 366.521 267.111 366.624 266.965 366.69C266.819 366.757 266.663 366.785 266.508 366.773L262.359 366.616L264.416 370.683C264.532 370.91 264.593 371.172 264.592 371.439C264.593 371.627 264.561 371.814 264.499 371.986C264.436 372.158 264.343 372.312 264.228 372.438C264.126 372.571 264.002 372.678 263.865 372.752C263.727 372.825 263.579 372.864 263.429 372.866C263.229 372.862 263.034 372.787 262.869 372.65C262.704 372.513 262.576 372.32 262.5 372.095L260.526 367.815L258.575 372.095C258.485 372.331 258.34 372.53 258.159 372.667C257.977 372.804 257.766 372.873 257.552 372.866Z" fill="#263238"/>
<path d="M276.615 372.866C276.307 372.864 276.012 372.716 275.793 372.452C275.611 372.228 275.495 371.938 275.463 371.625C275.431 371.313 275.485 370.997 275.616 370.726L277.72 366.616L273.607 366.773C273.45 366.782 273.293 366.752 273.146 366.686C272.998 366.62 272.863 366.518 272.749 366.388C272.557 366.127 272.451 365.789 272.451 365.439C272.451 365.089 272.557 364.751 272.749 364.49C272.862 364.357 272.997 364.253 273.144 364.184C273.292 364.116 273.449 364.084 273.607 364.091L277.673 364.276L275.581 360.181C275.467 359.958 275.406 359.701 275.405 359.439C275.409 359.063 275.536 358.704 275.757 358.44C275.976 358.176 276.272 358.028 276.58 358.026C276.78 358.028 276.976 358.098 277.145 358.23C277.313 358.361 277.448 358.548 277.532 358.768L279.53 363.177L281.516 358.797C281.611 358.563 281.756 358.365 281.936 358.224C282.116 358.083 282.325 358.005 282.539 357.998C282.689 357.997 282.838 358.034 282.976 358.108C283.114 358.182 283.237 358.29 283.338 358.426C283.554 358.697 283.672 359.062 283.667 359.439C283.663 359.685 283.606 359.926 283.503 360.138L281.375 364.276L285.512 364.091C285.664 364.072 285.818 364.093 285.963 364.153C286.107 364.213 286.24 364.309 286.351 364.436C286.463 364.564 286.55 364.718 286.608 364.89C286.666 365.062 286.693 365.246 286.688 365.432C286.69 365.784 286.585 366.124 286.394 366.388C286.283 366.521 286.15 366.624 286.005 366.69C285.859 366.757 285.703 366.785 285.548 366.773L281.399 366.616L283.456 370.683C283.571 370.91 283.633 371.172 283.632 371.439C283.633 371.627 283.601 371.814 283.538 371.986C283.475 372.158 283.383 372.312 283.267 372.438C283.165 372.571 283.042 372.678 282.904 372.752C282.767 372.825 282.618 372.864 282.468 372.866C282.268 372.862 282.074 372.787 281.909 372.65C281.744 372.513 281.616 372.32 281.54 372.095L279.565 367.815L277.614 372.095C277.526 372.327 277.385 372.522 277.208 372.659C277.031 372.796 276.825 372.868 276.615 372.866Z" fill="#263238"/>
<path d="M295.679 372.866C295.374 372.861 295.084 372.712 294.868 372.452C294.752 372.327 294.66 372.173 294.597 372C294.534 371.828 294.502 371.642 294.503 371.453C294.507 371.196 294.568 370.944 294.68 370.726L296.783 366.616L292.67 366.773C292.518 366.787 292.366 366.762 292.223 366.701C292.08 366.64 291.949 366.543 291.839 366.417C291.728 366.291 291.641 366.138 291.581 365.968C291.522 365.799 291.492 365.616 291.495 365.432C291.494 365.257 291.521 365.084 291.576 364.923C291.63 364.761 291.71 364.614 291.812 364.49C291.92 364.352 292.052 364.245 292.198 364.176C292.345 364.107 292.501 364.078 292.658 364.091L296.725 364.276L294.633 360.181C294.519 359.958 294.458 359.701 294.456 359.439C294.461 359.063 294.587 358.704 294.809 358.44C295.028 358.176 295.323 358.028 295.631 358.026C295.832 358.028 296.028 358.098 296.196 358.23C296.365 358.361 296.499 358.548 296.583 358.768L298.581 363.177L300.579 358.797C300.673 358.565 300.816 358.369 300.994 358.228C301.172 358.087 301.378 358.008 301.59 357.998C301.741 357.997 301.89 358.034 302.027 358.108C302.165 358.182 302.288 358.29 302.389 358.426C302.605 358.697 302.723 359.062 302.718 359.439C302.718 359.684 302.665 359.925 302.566 360.138L300.438 364.276L304.564 364.091C304.72 364.078 304.877 364.107 305.023 364.176C305.17 364.245 305.302 364.352 305.41 364.49C305.61 364.743 305.72 365.081 305.715 365.432C305.715 365.786 305.606 366.126 305.41 366.388C305.299 366.521 305.167 366.624 305.021 366.69C304.875 366.757 304.719 366.785 304.564 366.773L300.415 366.616L302.472 370.683C302.588 370.91 302.649 371.172 302.648 371.439C302.644 371.815 302.517 372.174 302.295 372.438C302.081 372.703 301.79 372.857 301.484 372.866C301.285 372.862 301.09 372.787 300.925 372.65C300.76 372.513 300.632 372.32 300.556 372.095L298.581 367.815L296.63 372.095C296.546 372.318 296.412 372.508 296.244 372.644C296.076 372.78 295.88 372.857 295.679 372.866Z" fill="#263238"/>
<g style="mix-blend-mode:multiply">
<path d="M354.972 83.7925H146.922V99.6167H354.972V83.7925Z" fill="#98DAD9"/>
</g>
<path d="M273.571 54.6412H228.323C227.506 54.6412 226.723 54.2473 226.145 53.5462C225.568 52.8451 225.244 51.8942 225.244 50.9027C225.244 49.9112 225.568 48.9603 226.145 48.2592C226.723 47.5581 227.506 47.1643 228.323 47.1643H273.571C274.388 47.1643 275.171 47.5581 275.749 48.2592C276.326 48.9603 276.651 49.9112 276.651 50.9027C276.651 51.8942 276.326 52.8451 275.749 53.5462C275.171 54.2473 274.388 54.6412 273.571 54.6412Z" fill="#98DAD9" stroke="#263238" stroke-width="1.33739" stroke-linecap="round" stroke-linejoin="round"/>
<path d="M263.288 514.998C263.29 512.034 262.568 509.135 261.213 506.669C259.858 504.203 257.93 502.281 255.675 501.145C253.42 500.009 250.937 499.711 248.542 500.289C246.148 500.866 243.948 502.294 242.221 504.39C240.494 506.486 239.319 509.157 238.843 512.065C238.367 514.972 238.613 517.986 239.548 520.724C240.484 523.462 242.067 525.802 244.098 527.447C246.13 529.092 248.517 529.969 250.959 529.966C254.228 529.963 257.362 528.384 259.673 525.578C261.985 522.772 263.285 518.967 263.288 514.998Z" fill="#98DAD9"/>
<path d="M257.211 507.407H244.706V522.589H257.211V507.407Z" fill="#98DAD9" stroke="#263238" stroke-width="1.33739" stroke-linecap="round" stroke-linejoin="round"/>
<path d="M399.915 342.716C399.915 342.716 383.531 292.175 398.117 286.168C413.301 279.904 412.631 313.279 412.044 329.546C410.81 364.305 407.648 370.768 405.286 362.278L399.915 342.716ZM394.99 382.141C399.492 389.275 400.761 381.884 392.64 348.509C388.832 332.813 380.558 301.065 367.865 312.979C355.677 324.394 384.683 365.774 384.683 365.774L394.99 382.141ZM386.293 411.106C390.583 415.73 390.665 409.894 380.476 385.794C375.692 374.507 365.573 351.662 357.287 362.963C349.33 373.865 376.444 400.362 376.444 400.362L386.293 411.106ZM376.891 445.552C381.181 450.189 381.263 444.339 371.073 420.253C366.29 408.966 356.171 386.107 347.885 397.423C339.975 408.353 367.007 434.85 367.007 434.85L376.891 445.552ZM404.04 375.434C397.176 378.688 402.63 382.226 431.295 382.126C444.74 382.126 472.195 381.384 466.342 363.249C460.736 345.826 419.906 368.014 419.906 368.014L404.04 375.434ZM396.224 398.607C388.961 400.134 393.733 404.928 421.846 411.749C435.021 414.959 462.041 420.881 459.279 401.76C456.634 383.325 412.984 395.225 412.984 395.225L396.224 398.607ZM387.48 426.902C381.298 427.987 385.247 432.167 408.882 438.731C419.965 441.813 442.707 447.592 440.733 431.283C438.852 415.587 401.713 424.462 401.713 424.462L387.48 426.902ZM380.84 453.114C374.787 454.983 379.077 458.636 403.17 462.118C414.453 463.744 437.571 466.57 434.198 450.603C430.942 435.278 394.791 448.848 394.791 448.848L380.84 453.114ZM416.263 346.996C412.737 356.585 420.059 355.13 444.952 328.761C456.611 316.39 479.999 290.506 461.476 277.621C443.694 265.236 424.572 324.994 424.572 324.994L416.263 346.996ZM381.757 487.26C378.031 489.899 381.686 490.927 398.775 486.789C406.79 484.862 423.091 480.582 417.579 472.135C412.244 464.001 390.383 481.124 390.383 481.124L381.757 487.26Z" fill="#98DAD9"/>
<path opacity="0.3" d="M399.915 342.716C399.915 342.716 383.531 292.175 398.117 286.168C413.301 279.904 412.631 313.279 412.044 329.546C410.81 364.305 407.648 370.768 405.286 362.278L399.915 342.716ZM394.99 382.141C399.492 389.275 400.761 381.884 392.64 348.509C388.832 332.813 380.558 301.065 367.865 312.979C355.677 324.394 384.683 365.774 384.683 365.774L394.99 382.141ZM386.293 411.106C390.583 415.73 390.665 409.894 380.476 385.794C375.692 374.507 365.573 351.662 357.287 362.963C349.33 373.865 376.444 400.362 376.444 400.362L386.293 411.106ZM376.891 445.552C381.181 450.189 381.263 444.339 371.073 420.253C366.29 408.966 356.171 386.107 347.885 397.423C339.975 408.353 367.007 434.85 367.007 434.85L376.891 445.552ZM404.04 375.434C397.176 378.688 402.63 382.226 431.295 382.126C444.74 382.126 472.195 381.384 466.342 363.249C460.736 345.826 419.906 368.014 419.906 368.014L404.04 375.434ZM396.224 398.607C388.961 400.134 393.733 404.928 421.846 411.749C435.021 414.959 462.041 420.881 459.279 401.76C456.634 383.325 412.984 395.225 412.984 395.225L396.224 398.607ZM387.48 426.902C381.298 427.987 385.247 432.167 408.882 438.731C419.965 441.813 442.707 447.592 440.733 431.283C438.852 415.587 401.713 424.462 401.713 424.462L387.48 426.902ZM380.84 453.114C374.787 454.983 379.077 458.636 403.17 462.118C414.453 463.744 437.571 466.57 434.198 450.603C430.942 435.278 394.791 448.848 394.791 448.848L380.84 453.114ZM416.263 346.996C412.737 356.585 420.059 355.13 444.952 328.761C456.611 316.39 479.999 290.506 461.476 277.621C443.694 265.236 424.572 324.994 424.572 324.994L416.263 346.996ZM381.757 487.26C378.031 489.899 381.686 490.927 398.775 486.789C406.79 484.862 423.091 480.582 417.579 472.135C412.244 464.001 390.383 481.124 390.383 481.124L381.757 487.26Z" fill="white"/>
<path d="M391.171 495.436H357.898V503.797H360.801L366.807 549.415H382.262L388.268 503.797H391.171V495.436Z" fill="#98DAD9"/>
<path opacity="0.3" d="M391.171 495.436H357.898V503.797H360.801L366.807 549.415H382.262L388.268 503.797H391.171V495.436Z" fill="white"/>
<path d="M91.6134 242.591L52.9112 227.252L49.4676 216.208L41.605 215.908L27.337 212.626L29.0529 216.208L47.0113 232.032L51.4421 234.714L91.919 260.384L91.6134 242.591Z" fill="white" stroke="#263238" stroke-width="1.00396" stroke-miterlimit="10"/>
<path d="M49.4676 216.208L45.7772 213.525L38.4082 216.807L39.6305 218.591L49.4676 216.208Z" fill="white" stroke="#263238" stroke-width="1.00396" stroke-linejoin="round"/>
<path d="M91.6134 242.591L52.9112 227.252L49.4676 216.208L41.605 215.908L27.337 212.626L29.0529 216.208L47.0113 232.032L51.4421 234.714L91.919 260.384L91.6134 242.591Z" fill="white"/>
<mask id="mask0_4_186" style="mask-type:luminance" maskUnits="userSpaceOnUse" x="27" y="212" width="65" height="49">
<path d="M91.6134 242.591L52.9112 227.252L49.4676 216.208L41.605 215.908L27.337 212.626L29.0529 216.208L47.0113 232.032L51.4421 234.714L91.919 260.384L91.6134 242.591Z" fill="white"/>
</mask>
<g mask="url(#mask0_4_186)">
<path opacity="0.5" d="M91.6134 242.591L52.9112 227.252L49.4676 216.208L41.605 215.908L27.337 212.626L29.0529 216.208L47.0113 232.032L51.4421 234.714L91.919 260.384L91.6134 242.591Z" fill="#98DAD9" stroke="#263238" stroke-width="1.00396" stroke-miterlimit="10"/>
</g>
<path d="M91.6134 242.591L52.9112 227.252L49.4676 216.208L41.605 215.908L27.337 212.626L29.0529 216.208L47.0113 232.032L51.4421 234.714L91.919 260.384L91.6134 242.591Z" stroke="#263238" stroke-width="1.00396" stroke-miterlimit="10"/>
<path d="M49.4676 216.208L45.7772 213.525L38.4082 216.807L39.6305 218.591L49.4676 216.208Z" fill="white"/>
<mask id="mask1_4_186" style="mask-type:luminance" maskUnits="userSpaceOnUse" x="38" y="213" width="12" height="6">
<path d="M49.4676 216.208L45.7772 213.525L38.4082 216.807L39.6305 218.591L49.4676 216.208Z" fill="white"/>
</mask>
<g mask="url(#mask1_4_186)">
<path opacity="0.5" d="M49.4676 216.208L45.7772 213.525L38.4082 216.807L39.6305 218.591L49.4676 216.208Z" fill="#98DAD9" stroke="#263238" stroke-width="1.00396" stroke-linejoin="round"/>
</g>
<path d="M49.4676 216.208L45.7772 213.525L38.4082 216.807L39.6305 218.591L49.4676 216.208Z" stroke="#263238" stroke-width="1.00396" stroke-linejoin="round"/>
<path d="M99.8287 143.037C99.8287 143.037 99.2293 149.458 100.722 153.582C102.215 157.705 110.5 171.675 110.5 171.675L95.0335 186.728C95.0335 186.728 88.6164 171.032 87.3941 168.493C86.1718 165.953 84.7027 155.023 88.687 147.189C92.6712 139.356 98.4066 137.244 99.8287 143.037Z" fill="white"/>
<mask id="mask2_4_186" style="mask-type:luminance" maskUnits="userSpaceOnUse" x="86" y="139" width="25" height="48">
<path d="M99.8287 143.037C99.8287 143.037 99.2293 149.458 100.722 153.582C102.215 157.705 110.5 171.675 110.5 171.675L95.0335 186.728C95.0335 186.728 88.6164 171.032 87.3941 168.493C86.1718 165.953 84.7027 155.023 88.687 147.189C92.6712 139.356 98.4066 137.244 99.8287 143.037Z" fill="white"/>
</mask>
<g mask="url(#mask2_4_186)">
<g style="mix-blend-mode:multiply" opacity="0.5">
<path d="M91.8837 163.67L98.5946 180.564L95.0218 186.742L88.2756 172.117L91.8837 163.67Z" fill="#98DAD9"/>
</g>
</g>
<path d="M99.8287 143.037C99.8287 143.037 99.2293 149.458 100.722 153.582C102.215 157.705 110.5 171.675 110.5 171.675L95.0335 186.728C95.0335 186.728 88.6164 171.032 87.3941 168.493C86.1718 165.953 84.7027 155.023 88.687 147.189C92.6712 139.356 98.4066 137.244 99.8287 143.037Z" stroke="#263238" stroke-width="1.00396" stroke-miterlimit="10"/>
<path d="M104.624 131.279C103.672 124.145 96.9375 109.633 86.2541 110.19C79.3199 110.561 76.0761 112.259 73.0674 114.328C70.6149 116.082 68.3289 118.159 66.2507 120.521C61.0325 128.126 59.199 130.209 60.2098 136.031C60.1268 138.353 60.4265 140.672 61.0912 142.851C62.6896 148.031 63.7826 151.413 65.1695 153.881C64.7464 156.293 63.6416 162.657 63.5828 164.112C63.5241 165.567 67.1087 164.554 68.9186 163.998C72.28 173.13 78.4385 179.465 80.3542 180.193C83.692 181.463 88.969 174.799 91.7662 169.634C94.5634 164.469 92.4479 158.661 92.4596 156.35C92.4714 154.038 98.7474 148.958 101.074 147.346C103.402 145.734 105.564 138.4 104.624 131.279Z" fill="white"/>
<mask id="mask3_4_186" style="mask-type:luminance" maskUnits="userSpaceOnUse" x="59" y="110" width="46" height="71">
<path d="M104.624 131.279C103.672 124.145 96.9375 109.633 86.2541 110.19C79.3199 110.561 76.0761 112.259 73.0674 114.328C70.6149 116.082 68.3289 118.159 66.2507 120.521C61.0325 128.126 59.199 130.209 60.2098 136.031C60.1268 138.353 60.4265 140.672 61.0912 142.851C62.6896 148.031 63.7826 151.413 65.1695 153.881C64.7464 156.293 63.6416 162.657 63.5828 164.112C63.5241 165.567 67.1087 164.554 68.9186 163.998C72.28 173.13 78.4385 179.465 80.3542 180.193C83.692 181.463 88.969 174.799 91.7662 169.634C94.5634 164.469 92.4479 158.661 92.4596 156.35C92.4714 154.038 98.7474 148.958 101.074 147.346C103.402 145.734 105.564 138.4 104.624 131.279Z" fill="white"/>
</mask>
<g mask="url(#mask3_4_186)">
<g style="mix-blend-mode:multiply" opacity="0.5">
<path d="M60.2566 136.031C60.1736 138.353 60.4733 140.672 61.138 142.851C62.7364 148.031 63.8294 151.413 65.2163 153.881C64.7932 156.293 63.6884 162.657 63.6296 164.112C63.5709 165.567 67.1555 164.554 68.9654 163.998C72.3268 173.13 78.4853 179.465 80.401 180.193C83.7388 181.463 89.0158 174.799 91.813 169.634C92.5118 168.345 92.9655 166.882 93.1411 165.353C92.9883 164.683 92.8825 164.269 92.8825 164.269C92.8825 164.269 91.3077 171.617 88.1814 170.661C85.0551 169.705 80.2717 162.1 77.6038 159.475C74.9359 156.849 76.0289 153.396 75.5 149.486C74.9712 145.577 67.0732 142.138 66.5443 139.898C66.0155 137.658 67.8607 128.383 67.8607 128.383C67.8607 128.383 70.8577 123.531 70.2112 125.529C69.7544 127.261 69.5886 129.087 69.7239 130.898C69.8592 132.71 70.2927 134.47 70.9987 136.074C71.4941 137.339 72.28 138.405 73.262 139.141C74.244 139.878 75.3802 140.254 76.5343 140.226L79.402 122.975L73.3493 116.896L66.2975 120.464C61.0322 128.126 59.2341 130.209 60.2566 136.031Z" fill="#98DAD9"/>
</g>
</g>
<path d="M104.624 131.279C103.672 124.145 96.9375 109.633 86.2541 110.19C79.3199 110.561 76.0761 112.259 73.0674 114.328C70.6149 116.082 68.3289 118.159 66.2507 120.521C61.0325 128.126 59.199 130.209 60.2098 136.031C60.1268 138.353 60.4265 140.672 61.0912 142.851C62.6896 148.031 63.7826 151.413 65.1695 153.881C64.7464 156.293 63.6416 162.657 63.5828 164.112C63.5241 165.567 67.1087 164.554 68.9186 163.998C72.28 173.13 78.4385 179.465 80.3542 180.193C83.692 181.463 88.969 174.799 91.7662 169.634C94.5634 164.469 92.4479 158.661 92.4596 156.35C92.4714 154.038 98.7474 148.958 101.074 147.346C103.402 145.734 105.564 138.4 104.624 131.279Z" stroke="#263238" stroke-miterlimit="10"/>
<path d="M66.6268 149.572L67.8021 153.653C67.8021 153.653 70.329 154.666 73.4082 150.585" stroke="#263238" stroke-miterlimit="10" stroke-linecap="round"/>
<path d="M75.3122 168.635C75.3122 168.635 78.1094 168.293 79.2377 163.527" stroke="#263238" stroke-miterlimit="10" stroke-linecap="round"/>
<path d="M64.6641 146.162C64.6641 146.162 65.4985 143.094 70.5405 143.094" stroke="#263238" stroke-miterlimit="10" stroke-linecap="round"/>
<path d="M90.5087 104.511C86.845 103.871 83.1504 103.528 79.4492 103.484C79.4492 103.484 68.378 95.7355 57.7417 103.997C47.1053 112.259 52.2178 126.728 52.2178 130.338C52.2178 133.948 48.8095 133.962 50.9367 138.614C53.064 143.265 60.2568 140.697 60.2568 140.697C60.3328 138.942 60.7147 137.227 61.3772 135.665C62.0397 134.104 62.9677 132.73 64.1 131.636C67.9314 128.026 70.9871 127.241 72.2565 128.283C72.2565 128.283 71.4102 136.031 72.6796 139.127C72.6796 139.127 76.9341 141.71 78.2152 141.71C79.4962 141.71 77.3807 143.893 81.6235 145.834C82.3965 146.171 83.2233 146.285 84.039 146.169C84.8547 146.053 85.6371 145.708 86.3246 145.163C86.9475 142.024 88.3109 137.301 90.8495 138.399C94.5752 140.012 97.9717 151.142 92.9298 154.937C98.9942 156.278 106.34 143.251 106.775 131.379C107.209 119.507 96.8082 105.852 90.5087 104.511Z" fill="#263238"/>
<path d="M72.4445 123.189C72.4445 123.189 75.5708 121.148 79.4022 125.515C83.2337 129.881 90.685 135.717 100.557 132.506" stroke="white" stroke-width="0.5" stroke-linecap="round" stroke-linejoin="round"/>
<path d="M72.0096 119.693C72.0096 119.693 74.1604 115.612 77.7568 115.612C81.3532 115.612 89.7565 121.733 96.4674 121.733" stroke="white" stroke-width="0.5" stroke-linecap="round" stroke-linejoin="round"/>
<path d="M69.5651 127.555C69.5651 127.555 65.4868 121.448 61.6554 126.399C57.824 131.351 60.2568 136.031 60.2568 136.031" stroke="white" stroke-width="0.5" stroke-linecap="round" stroke-linejoin="round"/>
<path d="M53.2639 131.636C55.6009 129.077 57.0537 125.539 57.3303 121.733C57.8122 115.327 65.0167 109.79 69.5651 115.041" stroke="white" stroke-width="0.5" stroke-linecap="round" stroke-linejoin="round"/>
<path d="M60.6917 108.335C60.6917 108.335 67.8962 99.8878 73.8901 110.661" stroke="white" stroke-width="0.5" stroke-linecap="round" stroke-linejoin="round"/>
<path d="M119.327 523.659C119.327 523.659 123.758 532.021 123.264 537.4L122.782 542.78C122.782 542.78 106.528 548.188 103.084 548.188C99.6407 548.188 81.4119 546.09 81.4119 546.09L80.6245 542.295C80.5694 542.014 80.5954 541.719 80.6981 541.46C80.8008 541.2 80.974 540.991 81.1886 540.868L97.4429 531.664L102.567 524.858L119.327 523.659Z" fill="white" stroke="#263238" stroke-width="1.00396" stroke-miterlimit="10"/>
<path d="M86.2777 314.478C86.2777 314.478 80.0956 347.738 77.7568 368.542C75.418 389.346 74.0429 431.026 74.5365 435.806C75.0302 440.586 99.6407 520.677 99.6407 520.677L102.097 527.812L119.327 523.631C119.327 523.631 111.452 493.153 108.502 476.415C105.552 459.678 99.1 432.182 99.1 427.402C99.1 422.622 114.379 331.329 115.472 325.336C116.565 319.343 121.525 310.14 121.525 310.14L88.5342 309.327L86.2777 314.478Z" fill="#98DAD9" stroke="#263238" stroke-width="1.00396" stroke-miterlimit="10"/>
<path d="M86.2776 314.478C86.2776 314.478 82.6578 344.856 84.1504 365.974C85.643 387.092 88.8515 432.053 88.8515 438.745C88.8515 445.437 97.7485 485.404 98.2538 497.961C99.0413 516.097 97.9365 525.072 97.9365 525.072L97.4076 531.65C97.4076 531.65 107.785 533.448 110.054 534.233C112.674 535.052 115.377 535.408 118.081 535.289C118.081 535.289 121.854 515.127 121.854 497.947C121.854 480.767 118.716 445.409 117.152 431.083C115.589 416.757 120.514 361.494 123.311 351.177C126.108 340.861 132.22 319.015 128.106 307.857C123.993 296.699 86.2776 314.478 86.2776 314.478Z" fill="#98DAD9" stroke="#263238" stroke-width="1.00396" stroke-miterlimit="10"/>
<path d="M132.678 302.263L132.302 315.847C132.302 315.847 125.603 317.46 116.577 319.358C109.125 320.927 90.4146 318.944 84.1151 318.202C83.541 318.14 83.0103 317.806 82.6383 317.271C82.2663 316.737 82.0832 316.046 82.1289 315.348L82.74 303.077L132.678 302.263Z" fill="#263238"/>
<path d="M106.493 166.852C106.493 166.852 95.915 180.735 91.9308 189.368C87.9466 198.001 86.3717 211.228 84.8791 221.644C83.3865 232.06 87.4295 256.517 86.2894 267.747L82.6813 303.119C82.6813 303.119 81.9056 305.517 84.503 308.142C87.1004 310.768 99.7817 311.724 111.241 312.423C115.425 312.68 127.918 309.412 129.963 309.255C132.431 309.07 132.513 305.26 132.619 302.263C133.113 288.18 135.205 250.639 136.58 234.286C139.412 200.94 123.91 168.749 106.493 166.852Z" fill="white" stroke="#263238" stroke-width="1.00396" stroke-miterlimit="10"/>
<g style="mix-blend-mode:multiply">
<path d="M135.287 253.25C135.757 245.844 136.227 239.124 136.639 234.286C136.756 232.86 136.827 231.433 136.885 230.006L108.784 235.713L84.644 225.725C84.6466 231.79 84.9291 237.849 85.4902 243.875L109.172 251.923L135.287 253.25Z" fill="#98DAD9"/>
</g>
<g style="mix-blend-mode:multiply">
<path d="M105.447 168.25C103.848 170.405 100.675 174.785 97.6544 179.437L115.495 201.454L121.372 198.6L105.447 168.25Z" fill="#98DAD9"/>
</g>
<path d="M106.493 166.852C106.493 166.852 95.915 180.735 91.9307 189.368C90.7493 191.991 89.7924 194.755 89.0748 197.615L110.347 167.779C109.091 167.317 107.8 167.006 106.493 166.852Z" fill="#263238"/>
<g style="mix-blend-mode:multiply">
<path d="M85.7018 216.022L108.784 225.24L136.815 221.33C136.376 212.853 134.824 204.515 132.22 196.631L109.619 207.632L89.4157 196.517C87.7637 202.892 86.522 209.413 85.7018 216.022Z" fill="#98DAD9"/>
</g>
<g style="mix-blend-mode:multiply">
<path d="M125.438 288.18C113.731 290.567 101.718 289.375 90.4852 284.713L84.8556 282.373L83.1044 299.495L89.5215 301.678C101.721 305.819 114.471 307.012 127.048 305.189L132.231 304.432C132.501 303.739 132.653 302.987 132.678 302.221C132.819 298.411 133.066 292.874 133.383 286.525L125.438 288.18Z" fill="#98DAD9"/>
</g>
<g style="mix-blend-mode:multiply">
<path d="M128.576 264.865C116.868 267.261 104.853 266.064 93.6232 261.383L86.4539 258.401C86.6318 261.51 86.5964 264.631 86.3482 267.733L85.5137 275.966L92.6595 278.392C104.854 282.537 117.6 283.734 130.175 281.916L133.7 281.402C133.994 275.695 134.335 269.616 134.699 263.609L128.576 264.865Z" fill="#98DAD9"/>
</g>
<path d="M18.3123 204.524L41.0369 226.707L42.0163 225.228L19.2917 203.045L18.3123 204.524Z" fill="#263238"/>
<path d="M117.434 182.248C117.434 182.248 125.767 189.14 125.955 205.42C126.038 212.555 125.426 219.218 124.075 230.905C122.723 242.591 114.332 280.646 107.797 285.269C101.263 289.892 91.1198 281.16 91.1198 281.16L42.0633 241.621L30.2047 229.991L24.3282 216.522L26.1734 212.241L40.6412 225.711L32.849 216.964L34.3769 214.61L37.1976 216.993L45.4246 220.731L47.2228 235L49.7614 237.112L96.6907 257.93C96.6907 257.93 96.103 227.266 96.5379 221.402C96.9727 215.537 97.5721 200.797 102.743 190.11" fill="white"/>
<mask id="mask4_4_186" style="mask-type:luminance" maskUnits="userSpaceOnUse" x="24" y="182" width="102" height="105">
<path d="M117.434 182.248C117.434 182.248 125.767 189.14 125.955 205.42C126.038 212.555 125.426 219.218 124.075 230.905C122.723 242.591 114.332 280.646 107.797 285.269C101.263 289.892 91.1198 281.16 91.1198 281.16L42.0633 241.621L30.2047 229.991L24.3282 216.522L26.1734 212.241L40.6412 225.711L32.849 216.964L34.3769 214.61L37.1976 216.993L45.4246 220.731L47.2228 235L49.7614 237.112L96.6907 257.93C96.6907 257.93 96.103 227.266 96.5379 221.402C96.9727 215.537 97.5721 200.797 102.743 190.11" fill="white"/>
</mask>
<g mask="url(#mask4_4_186)">
<g style="mix-blend-mode:multiply" opacity="0.5">
<path d="M96.3614 234.757C96.3614 245.345 96.6552 257.93 96.6552 257.93L49.773 237.197L47.2344 235.086L45.4362 220.817L37.2092 217.078L34.4003 214.652L32.8724 217.007L40.641 225.711L26.1733 212.241L24.4221 216.45L30.2985 229.92L42.1572 241.621L45.1424 244.032L109.959 269.388L96.3614 234.757Z" fill="#98DAD9"/>
</g>
</g>
<path d="M117.434 182.248C117.434 182.248 125.767 189.14 125.955 205.42C126.038 212.555 125.426 219.218 124.075 230.905C122.723 242.591 114.332 280.646 107.797 285.269C101.263 289.892 91.1198 281.16 91.1198 281.16L42.0633 241.621L30.2047 229.991L24.3282 216.522L26.1734 212.241L40.6412 225.711L32.849 216.964L34.3769 214.61L37.1976 216.993L45.4246 220.731L47.2228 235L49.7614 237.112L96.6907 257.93C96.6907 257.93 96.103 227.266 96.5379 221.402C96.9727 215.537 97.5721 200.797 102.743 190.11" stroke="#263238" stroke-width="1.00396" stroke-miterlimit="10"/>
<path d="M96.6907 257.93L114.602 273.626L119.244 263.638C119.244 263.638 122.453 260.57 122.923 258.258C123.393 255.947 122.794 252.194 123.276 249.882C123.758 247.571 126.155 245.402 126.378 239.808C126.602 234.215 126.378 229.549 126.378 229.549C126.378 229.549 130.257 210.186 129.834 201.768C129.411 193.349 122.723 178.467 117.364 178.138C112.005 177.81 105.035 178.795 99.6289 188.726C94.2226 198.657 95.3274 227.651 94.4811 229.464C93.6349 231.276 94.8102 240.222 94.8102 240.222C94.3405 240.648 93.9508 241.19 93.6671 241.812C93.3834 242.434 93.2122 243.123 93.1648 243.832C93.0708 246.158 95.1393 251.88 95.1393 251.88L96.6907 257.93Z" fill="white" stroke="#263238" stroke-width="1.00396" stroke-miterlimit="10"/>
<g style="mix-blend-mode:multiply">
<path d="M94.9512 222.015C94.9881 224.505 94.8347 226.994 94.4929 229.449C93.7407 231.076 94.5987 238.424 94.7867 239.923C104.861 243.722 115.514 244.697 125.944 242.776C126.168 241.784 126.302 240.765 126.343 239.737C126.578 234.158 126.343 229.478 126.343 229.478C126.343 229.478 126.684 227.751 127.154 225.126C116.353 225.959 105.508 224.912 94.9512 222.015Z" fill="#98DAD9"/>
</g>
<g style="mix-blend-mode:multiply">
<path d="M98.9002 190.31C97.2195 194.405 96.2793 200.555 95.7387 206.79C106.408 211.734 117.912 213.434 129.246 211.742C129.698 208.442 129.899 205.098 129.846 201.753C129.642 199.11 129.127 196.515 128.318 194.048C118.421 194.329 108.535 193.072 98.9002 190.31Z" fill="#98DAD9"/>
</g>
<path d="M95.1393 252.037L96.6554 257.93L114.567 273.626L119.209 263.638C119.209 263.638 122.418 260.57 122.888 258.258C122.972 257.856 123.023 257.445 123.041 257.031C113.602 256.833 104.224 255.155 95.1393 252.037Z" fill="#263238"/>
<path d="M108.103 534.047C108.103 534.047 108.502 521.69 110.453 503.626C112.404 485.562 107.715 459.906 106.927 455.625C106.14 451.345 107.327 441.842 106.54 438.503C105.752 435.164 101.944 420.924 104.189 404.4C106.434 387.877 108.255 344.2 108.255 344.2C108.255 344.2 102.602 338.621 100.945 331.358C99.288 324.095 100.557 321.812 100.557 321.812" stroke="#263238" stroke-width="1.00396" stroke-miterlimit="10"/>
<path d="M110.724 322.482L108.549 337.094" stroke="#263238" stroke-width="1.00396" stroke-miterlimit="10"/>
</svg>
