<svg width="331" height="219" viewBox="0 0 331 219" fill="none" xmlns="http://www.w3.org/2000/svg">
<path d="M158.482 218.331C241.331 218.331 308.493 214.337 308.493 209.41C308.493 204.483 241.331 200.488 158.482 200.488C75.6337 200.488 8.47156 204.483 8.47156 209.41C8.47156 214.337 75.6337 218.331 158.482 218.331Z" fill="#98DAD9"/>
<path opacity="0.6" d="M158.482 218.331C241.331 218.331 308.493 214.337 308.493 209.41C308.493 204.483 241.331 200.488 158.482 200.488C75.6337 200.488 8.47156 204.483 8.47156 209.41C8.47156 214.337 75.6337 218.331 158.482 218.331Z" fill="white"/>
<path d="M35.9649 20.3873H285.769C287.993 20.3873 290.125 21.2706 291.698 22.843C293.27 24.4153 294.153 26.5479 294.153 28.7715V193.411H27.5886V28.7715C27.5886 26.5493 28.4709 24.4179 30.0415 22.8458C31.6121 21.2737 33.7426 20.3894 35.9649 20.3873Z" fill="#98DAD9" stroke="#263238" stroke-width="0.920603" stroke-miterlimit="10"/>
<path d="M283.34 33.9095H38.4016V172.33H283.34V33.9095Z" fill="white"/>
<mask id="mask0_4_1344" style="mask-type:luminance" maskUnits="userSpaceOnUse" x="38" y="33" width="246" height="140">
<path d="M283.34 33.9095H38.4016V172.33H283.34V33.9095Z" fill="white"/>
</mask>
<g mask="url(#mask0_4_1344)">
<g style="mix-blend-mode:multiply" opacity="0.4">
<path d="M283.34 172.33V54.1728L80.7317 172.33H283.34Z" fill="#98DAD9"/>
</g>
</g>
<path d="M283.34 33.9095H38.4016V172.33H283.34V33.9095Z" stroke="#263238" stroke-width="0.690452" stroke-miterlimit="10"/>
<path d="M253.074 185.083H69.8787V194.108H253.074V185.083Z" fill="#98DAD9" stroke="#263238" stroke-width="0.691688" stroke-miterlimit="10"/>
<path d="M253.074 189.435H69.8787V194.116H253.074V189.435Z" fill="#98DAD9" stroke="#263238" stroke-width="0.691688" stroke-miterlimit="10"/>
<path d="M6.02692 199.462C6.02692 199.462 9.04076 203.142 18.0502 206.147H304.894C304.894 206.147 311.579 204.472 314.593 199.791L6.02692 199.462Z" fill="#98DAD9" stroke="#263238" stroke-width="0.920603" stroke-miterlimit="10"/>
<path d="M313.078 192.874H7.58192C6.38667 192.874 5.41772 193.843 5.41772 195.038V197.739C5.41772 198.934 6.38667 199.903 7.58192 199.903H313.078C314.273 199.903 315.242 198.934 315.242 197.739V195.038C315.242 193.843 314.273 192.874 313.078 192.874Z" fill="#98DAD9" stroke="#263238" stroke-width="0.920603" stroke-miterlimit="10"/>
<path d="M160.815 27.962C162.108 27.962 163.156 26.9141 163.156 25.6214C163.156 24.3288 162.108 23.2809 160.815 23.2809C159.522 23.2809 158.474 24.3288 158.474 25.6214C158.474 26.9141 159.522 27.962 160.815 27.962Z" fill="#263238"/>
<path d="M129.891 23.2809H71.3775C71.2238 23.2809 71.0716 23.2506 70.9296 23.1918C70.7877 23.133 70.6587 23.0468 70.55 22.9381C70.4413 22.8295 70.3551 22.7004 70.2963 22.5585C70.2375 22.4165 70.2072 22.2643 70.2072 22.1106C70.2072 21.9569 70.2375 21.8048 70.2963 21.6628C70.3551 21.5208 70.4413 21.3918 70.55 21.2831C70.6587 21.1744 70.7877 21.0882 70.9296 21.0294C71.0716 20.9706 71.2238 20.9404 71.3775 20.9404H129.891C130.201 20.9425 130.497 21.0664 130.716 21.2854C130.935 21.5045 131.059 21.8009 131.061 22.1106C131.061 22.421 130.938 22.7187 130.718 22.9381C130.499 23.1576 130.201 23.2809 129.891 23.2809Z" fill="#98DAD9" stroke="#263238" stroke-width="0.691688" stroke-miterlimit="10"/>
<path d="M249.234 23.2809H190.721C190.411 23.2809 190.113 23.1576 189.893 22.9381C189.674 22.7187 189.551 22.421 189.551 22.1106C189.553 21.8009 189.677 21.5045 189.896 21.2854C190.115 21.0664 190.411 20.9425 190.721 20.9404H249.234C249.545 20.9404 249.842 21.0636 250.062 21.2831C250.281 21.5026 250.405 21.8002 250.405 22.1106C250.405 22.421 250.281 22.7187 250.062 22.9381C249.842 23.1576 249.545 23.2809 249.234 23.2809Z" fill="#98DAD9" stroke="#263238" stroke-width="0.691688" stroke-miterlimit="10"/>
<path d="M291.861 69.0817C291.684 69.0817 291.514 69.0119 291.388 68.8873C291.262 68.7628 291.19 68.5936 291.188 68.4164V49.0268C291.19 48.8489 291.261 48.6788 291.387 48.553C291.513 48.4272 291.683 48.3556 291.861 48.3535C292.038 48.3556 292.207 48.4275 292.332 48.5535C292.457 48.6796 292.526 48.8496 292.526 49.0268V68.4164C292.526 68.5928 292.456 68.7621 292.331 68.8868C292.207 69.0116 292.037 69.0817 291.861 69.0817Z" fill="#98DAD9" stroke="#263238" stroke-width="0.691688" stroke-miterlimit="10"/>
<path d="M30.0975 69.0817C30.0102 69.0817 29.9237 69.0645 29.8429 69.031C29.7622 68.9976 29.6889 68.9486 29.6271 68.8868C29.5653 68.825 29.5163 68.7517 29.4829 68.671C29.4495 68.5903 29.4323 68.5038 29.4323 68.4164V49.0268C29.4322 48.8496 29.5021 48.6796 29.6266 48.5535C29.7512 48.4275 29.9204 48.3556 30.0975 48.3535C30.2755 48.3556 30.4455 48.4272 30.5713 48.553C30.6972 48.6788 30.7688 48.8489 30.7708 49.0268V68.4164C30.7687 68.5936 30.6969 68.7628 30.5708 68.8873C30.4448 69.0119 30.2747 69.0817 30.0975 69.0817Z" fill="#98DAD9" stroke="#263238" stroke-width="0.691688" stroke-miterlimit="10"/>
<path d="M213.309 74.1635C214.447 73.362 215.673 71.9352 215.713 70.4283C215.728 70.0752 215.669 69.7229 215.54 69.394C215.411 69.0651 215.214 68.7669 214.963 68.5185C214.712 68.2701 214.411 68.0771 214.081 67.9518C213.75 67.8266 213.397 67.7719 213.044 67.7912C210.92 67.9836 209.036 71.318 208.588 73.1696C208.588 73.3299 208.267 75.9029 208.307 75.8949C208.347 75.8869 211.962 75.1174 213.309 74.1635Z" fill="#263238"/>
<path d="M194.961 114.353C194.91 114.068 194.799 113.796 194.636 113.556C194.472 113.316 194.259 113.113 194.011 112.962C193.764 112.81 193.487 112.713 193.198 112.677C192.91 112.64 192.618 112.665 192.34 112.75C190.737 113.303 189.831 116.309 189.855 117.864C189.855 117.96 190.008 119.131 190.096 119.724C189.911 119.267 189.735 118.802 189.551 118.321C189.286 117.624 189.03 116.886 188.749 116.165L188.388 115.019C188.26 114.634 188.18 114.217 188.076 113.864C187.931 113.287 187.811 112.686 187.691 112.085C188.994 111.723 190.232 111.161 191.362 110.418C192.236 109.616 193.126 108.438 193.037 107.212C193.027 106.923 192.956 106.641 192.829 106.382C192.702 106.123 192.521 105.894 192.3 105.709C192.078 105.525 191.82 105.389 191.543 105.311C191.265 105.233 190.974 105.214 190.689 105.256C188.982 105.56 187.667 108.398 187.483 109.937C187.483 109.985 187.483 110.314 187.483 110.738C187.386 110.145 187.282 109.56 187.202 108.959C186.962 107.26 186.777 105.52 186.585 103.781C186.545 103.412 186.497 103.052 186.457 102.691C187.796 102.315 189.072 101.74 190.24 100.984C191.114 100.182 192.003 99.0037 191.915 97.7773C191.904 97.4895 191.832 97.2074 191.704 96.9492C191.577 96.6909 191.396 96.4623 191.175 96.278C190.954 96.0937 190.696 95.9578 190.419 95.8792C190.142 95.8006 189.852 95.7809 189.567 95.8215C187.859 96.1261 186.545 98.9636 186.36 100.503C186.36 100.559 186.36 100.951 186.36 101.384C186.24 100.446 186.112 99.5007 185.952 98.5709C185.69 96.9748 185.323 95.3976 184.854 93.8497C185.07 93.7856 187.771 92.968 188.757 92.1103C189.623 91.3088 190.521 90.1305 190.424 88.9041C190.414 88.6159 190.343 88.3332 190.216 88.0743C190.089 87.8155 189.908 87.5863 189.687 87.4017C189.465 87.2172 189.207 87.0814 188.93 87.0033C188.652 86.9252 188.361 86.9064 188.076 86.9483C186.368 87.2529 185.054 90.0904 184.87 91.6294C184.87 91.7336 184.821 93.1604 184.829 93.6653C184.826 93.6468 184.826 93.6278 184.829 93.6092C184.326 92.1027 183.69 90.6435 182.93 89.2488C182.26 87.998 181.515 86.7882 180.701 85.6258C179.956 84.5356 179.211 83.5898 178.537 82.7562C178.177 82.3073 177.832 81.8985 177.511 81.5298C177.511 81.5298 176.934 79.5179 176.878 79.3897C176.261 77.9709 174.233 75.5903 172.502 75.7666C172.216 75.8026 171.941 75.8984 171.695 76.0478C171.45 76.1972 171.238 76.3969 171.075 76.6337C170.911 76.8705 170.8 77.1392 170.747 77.4221C170.695 77.705 170.703 77.9958 170.77 78.2755C171.011 79.4778 172.197 80.3996 173.247 80.9046C174.582 81.3245 175.975 81.5328 177.375 81.5218C177.704 81.9226 178.048 82.3234 178.417 82.8203C179.066 83.67 179.796 84.6318 180.509 85.73C180.701 86.0265 180.894 86.3472 181.086 86.6517C180.653 86.2029 180.052 85.5857 179.98 85.5376C178.778 84.5597 175.884 83.3814 174.433 84.3272C174.196 84.4919 173.996 84.7046 173.847 84.9515C173.697 85.1984 173.601 85.4741 173.565 85.7605C173.528 86.047 173.553 86.3378 173.636 86.6143C173.719 86.8907 173.86 87.1465 174.049 87.3651C174.486 87.7966 175.01 88.1293 175.587 88.3408C176.163 88.5524 176.779 88.6379 177.391 88.5915C178.593 88.5915 180.87 87.4693 181.399 87.2289C181.824 87.9182 182.2 88.6396 182.625 89.4171C183.346 90.8096 183.941 92.2635 184.405 93.7615C184.405 93.8497 184.405 93.9459 184.469 94.0341C184.292 93.7696 183.226 92.431 183.138 92.3267C182.048 91.2206 179.299 89.7297 177.752 90.5152C177.498 90.6522 177.275 90.8413 177.099 91.07C176.923 91.2987 176.798 91.562 176.73 91.8427C176.663 92.1233 176.656 92.415 176.709 92.6987C176.762 92.9824 176.874 93.2517 177.038 93.489C177.696 94.515 179.138 94.9558 180.293 95.044C181.623 95.1482 184.381 94.1302 184.485 94.0902C184.904 95.5988 185.225 97.133 185.447 98.6831C185.615 99.8293 185.743 100.992 185.855 102.17C185.623 101.833 184.621 100.567 184.541 100.487C183.451 99.3804 180.701 97.8975 179.154 98.675C178.9 98.812 178.678 99.0011 178.502 99.2298C178.326 99.4585 178.2 99.7218 178.133 100.002C178.066 100.283 178.058 100.575 178.111 100.858C178.165 101.142 178.277 101.411 178.441 101.649C179.098 102.683 180.541 103.116 181.695 103.204C182.994 103.308 185.639 102.346 185.863 102.266C185.92 102.795 185.968 103.332 186.016 103.869C186.176 105.617 186.32 107.364 186.521 109.087C186.593 109.68 186.681 110.266 186.769 110.851C186.401 110.362 185.703 109.488 185.639 109.416C184.549 108.318 181.8 106.827 180.253 107.612C179.998 107.748 179.775 107.936 179.598 108.163C179.422 108.391 179.295 108.653 179.227 108.934C179.159 109.214 179.151 109.505 179.203 109.788C179.256 110.072 179.367 110.341 179.531 110.578C180.196 111.612 181.639 112.045 182.794 112.133C184.167 112.045 185.519 111.745 186.801 111.243C186.954 112.221 187.122 113.183 187.338 114.121C187.443 114.53 187.523 114.923 187.643 115.323C187.763 115.724 187.859 116.125 187.972 116.478C188.228 117.279 188.461 117.976 188.717 118.698C188.845 119.059 188.973 119.395 189.102 119.748C188.805 119.195 188.3 118.329 188.252 118.257C187.346 117.007 184.854 115.115 183.202 115.652C182.931 115.749 182.683 115.902 182.475 116.102C182.266 116.301 182.102 116.542 181.993 116.809C181.885 117.076 181.833 117.363 181.843 117.651C181.852 117.939 181.922 118.222 182.048 118.481C182.545 119.604 183.908 120.253 185.03 120.517C186.152 120.782 188.949 120.285 189.27 120.221C189.591 121.078 189.911 121.912 190.216 122.69C191.202 125.142 192.108 127.146 192.765 128.541C193.422 129.936 193.831 130.721 193.831 130.721C193.907 130.858 194.033 130.959 194.183 131.004C194.333 131.049 194.494 131.034 194.632 130.962C194.767 130.884 194.867 130.758 194.912 130.609C194.957 130.46 194.943 130.299 194.873 130.16C194.873 130.16 194.464 129.407 193.783 128.036C193.102 126.665 192.18 124.71 191.138 122.305C190.841 121.608 190.537 120.87 190.232 120.109C190.545 119.956 192.989 118.778 193.807 117.8C194.624 116.822 195.234 115.548 194.961 114.353Z" fill="#263238"/>
<path d="M181.399 86.8922C181.399 86.8922 183.988 85.2891 184.733 84.1589C185.375 83.189 185.912 81.7543 185.535 80.6321C185.448 80.3576 185.304 80.1045 185.113 79.8893C184.921 79.674 184.687 79.5015 184.425 79.3828C184.162 79.2641 183.878 79.2019 183.59 79.2003C183.302 79.1988 183.017 79.2578 182.753 79.3736C181.15 80.1111 180.669 83.197 180.87 84.736C180.87 84.8643 181.399 86.9082 181.399 86.8922Z" fill="#263238"/>
<path d="M220.851 74.1635C222.19 75.1575 225.861 75.8949 225.861 75.8949C225.861 75.8949 225.621 73.3299 225.58 73.1696C225.156 71.318 223.256 67.9836 221.132 67.7912C220.779 67.7706 220.425 67.8244 220.094 67.9493C219.763 68.0741 219.462 68.267 219.21 68.5157C218.959 68.7643 218.762 69.0631 218.633 69.3925C218.504 69.722 218.446 70.0749 218.463 70.4283C218.479 71.8951 219.705 73.2818 220.851 74.1635Z" fill="#263238"/>
<path d="M236.081 109.712C233.957 109.801 231.881 113.031 231.368 114.866C231.368 114.971 231.143 116.181 231.031 116.95C231.031 116.486 231.031 116.045 231.031 115.572C231.031 114.634 230.983 113.696 230.943 112.694C230.943 112.213 230.879 111.724 230.839 111.227C230.799 110.73 230.726 110.217 230.67 109.712C230.518 108.534 230.31 107.356 230.069 106.162C230.871 106.162 233.804 106.073 235.095 105.48C236.385 104.887 237.86 103.765 238.181 102.274C238.27 101.931 238.286 101.573 238.227 101.224C238.168 100.875 238.036 100.542 237.839 100.247C237.642 99.9525 237.385 99.703 237.085 99.5149C236.785 99.3268 236.448 99.2045 236.097 99.156C233.981 98.9075 231.44 101.793 230.654 103.532C230.606 103.637 230.181 104.943 229.965 105.665C229.813 104.951 229.668 104.238 229.5 103.524C228.995 101.456 228.418 99.3804 227.857 97.3044C227.681 96.6712 227.52 96.0299 227.352 95.3967C227.809 95.3967 231.143 95.3967 232.554 94.7074C233.965 94.018 235.319 92.992 235.64 91.5012C235.728 91.1584 235.743 90.8008 235.683 90.452C235.624 90.1031 235.491 89.7707 235.295 89.4764C235.098 89.1822 234.842 88.9327 234.542 88.7443C234.242 88.5559 233.906 88.4328 233.556 88.3831C231.44 88.1426 228.907 91.0282 228.121 92.7596C228.057 92.8878 227.448 94.7715 227.32 95.2604C226.951 93.8577 226.598 92.463 226.31 91.0683C225.91 89.1941 225.635 87.2957 225.484 85.3853C225.733 85.3853 229.26 85.3853 230.718 84.696C232.009 84.1028 233.484 82.9806 233.812 81.4897C233.899 81.1464 233.913 80.7887 233.852 80.4398C233.792 80.0909 233.658 79.7586 233.461 79.4646C233.264 79.1705 233.007 78.9213 232.707 78.733C232.407 78.5447 232.071 78.4216 231.72 78.3717C229.604 78.1312 227.071 81.0168 226.286 82.7482C226.222 82.8845 225.572 84.9124 225.484 85.2811C225.484 85.1769 225.484 85.0567 225.484 84.9444C225.377 83.0215 225.441 81.0928 225.677 79.1813C225.797 78.1232 225.965 77.1133 226.158 76.1434C226.847 76.2155 229.909 76.488 231.312 76.0151C232.714 75.5422 234.253 74.6204 234.734 73.1937C234.858 72.8625 234.91 72.509 234.889 72.1562C234.867 71.8033 234.771 71.459 234.608 71.1454C234.445 70.8319 234.218 70.5561 233.941 70.3359C233.665 70.1157 233.345 69.956 233.003 69.8672C230.919 69.3943 228.081 71.9833 227.111 73.6185C227.063 73.7067 226.622 74.6685 226.31 75.3819C226.398 74.941 226.486 74.4842 226.582 74.0674C226.943 72.4642 227.384 71.0776 227.753 69.8271C227.977 69.1218 228.194 68.4805 228.402 67.8874C229.099 67.6068 231.889 66.4606 232.899 65.4106C233.909 64.3605 234.862 62.8135 234.63 61.3307C234.588 60.979 234.473 60.6401 234.292 60.3361C234.11 60.0321 233.867 59.7697 233.577 59.5662C233.287 59.3627 232.958 59.2227 232.61 59.1552C232.263 59.0877 231.905 59.0942 231.56 59.1745C229.5 59.7115 228.178 63.3185 228.065 65.2182C228.065 65.3785 228.21 67.9675 228.242 67.9515H228.282C228.073 68.5206 227.849 69.1298 227.616 69.8031C227.208 71.0455 226.751 72.4562 226.358 74.0273C225.914 75.713 225.569 77.4232 225.324 79.1492C225.044 81.081 224.937 83.0338 225.003 84.9845V85.0567C224.795 84.4715 224.154 82.8444 224.09 82.7322C223.192 81.0489 220.467 78.3396 218.375 78.7244C217.906 78.8084 217.475 79.0351 217.14 79.3736C216.807 79.0334 216.375 78.8063 215.906 78.7244C213.814 78.3477 211.096 81.0569 210.199 82.7322C210.135 82.8444 209.485 84.4715 209.277 85.0567C209.277 85.0567 209.277 85.0086 209.277 84.9845C209.341 83.0335 209.231 81.0807 208.948 79.1492C208.702 77.4241 208.36 75.7141 207.922 74.0273C207.529 72.4242 207.073 71.0455 206.656 69.8031C206.423 69.1298 206.207 68.5206 205.99 67.9515H206.031C206.031 67.9515 206.215 65.3785 206.207 65.2182C206.103 63.3185 204.772 59.7115 202.712 59.1745C202.367 59.0942 202.009 59.0877 201.662 59.1552C201.314 59.2227 200.985 59.3627 200.695 59.5662C200.405 59.7697 200.162 60.0321 199.98 60.3361C199.799 60.6401 199.684 60.979 199.642 61.3307C199.41 62.8135 200.388 64.3926 201.374 65.4106C202.359 66.4285 205.173 67.6068 205.87 67.8874C206.079 68.4805 206.295 69.1218 206.528 69.8271C206.912 71.0776 207.329 72.4963 207.69 74.0674C207.786 74.4842 207.874 74.941 207.97 75.3819C207.658 74.6685 207.225 73.7067 207.169 73.6185C206.199 72.0154 203.361 69.3943 201.285 69.8672C200.943 69.9549 200.622 70.1139 200.345 70.3338C200.068 70.5538 199.84 70.8297 199.676 71.1436C199.513 71.4575 199.418 71.8023 199.397 72.1556C199.376 72.5088 199.429 72.8625 199.554 73.1937C200.035 74.6204 201.622 75.5983 202.969 76.0151C204.315 76.4319 207.433 76.2155 208.131 76.1434C208.315 77.1133 208.483 78.1232 208.604 79.1813C208.841 81.0925 208.909 83.0212 208.804 84.9444C208.804 85.0567 208.804 85.1769 208.764 85.2811C208.676 84.9124 208.018 82.8764 207.962 82.7482C207.161 81.0168 204.636 78.1312 202.52 78.3717C202.169 78.4214 201.833 78.5445 201.534 78.7329C201.234 78.9213 200.978 79.1708 200.781 79.465C200.584 79.7593 200.452 80.0917 200.392 80.4406C200.333 80.7894 200.348 81.1469 200.436 81.4897C200.756 82.9566 202.231 84.0788 203.522 84.696C204.981 85.3693 208.507 85.3853 208.756 85.3853C208.597 87.301 208.316 89.2045 207.914 91.0843C207.618 92.479 207.265 93.8737 206.896 95.2765C206.768 94.7875 206.159 92.8718 206.095 92.7756C205.293 91.0443 202.768 88.1587 200.652 88.3991C200.302 88.4489 199.966 88.572 199.666 88.7603C199.367 88.9487 199.11 89.1982 198.913 89.4924C198.717 89.7867 198.584 90.1191 198.525 90.468C198.465 90.8169 198.48 91.1744 198.568 91.5172C198.889 92.984 200.364 94.1062 201.654 94.7234C203.065 95.3727 206.407 95.4127 206.856 95.4127C206.688 96.046 206.528 96.6872 206.351 97.3204C205.79 99.3965 205.213 101.472 204.748 103.54C204.572 104.254 204.427 104.967 204.275 105.681C204.059 104.959 203.634 103.653 203.586 103.549C202.784 101.809 200.259 98.9235 198.143 99.172C197.793 99.2218 197.457 99.3448 197.157 99.5332C196.858 99.7216 196.601 99.9711 196.404 100.265C196.208 100.56 196.075 100.892 196.016 101.241C195.956 101.59 195.971 101.947 196.059 102.29C196.38 103.757 197.855 104.871 199.145 105.496C200.436 106.121 203.337 106.17 204.171 106.178C203.931 107.372 203.722 108.582 203.57 109.728C203.514 110.233 203.426 110.754 203.401 111.243C203.377 111.732 203.329 112.229 203.297 112.71C203.257 113.712 203.225 114.65 203.217 115.588C203.217 116.061 203.217 116.502 203.217 116.967C203.105 116.165 202.905 114.987 202.872 114.882C202.359 113.047 200.291 109.817 198.159 109.728C197.806 109.726 197.456 109.797 197.132 109.938C196.808 110.08 196.517 110.287 196.278 110.548C196.039 110.809 195.858 111.116 195.746 111.452C195.633 111.787 195.593 112.142 195.626 112.494C195.723 114.001 197.013 115.323 198.199 116.109C199.386 116.894 202.688 117.496 203.209 117.576C203.209 118.706 203.209 119.796 203.209 120.822C203.297 124.068 203.49 126.762 203.65 128.653C203.81 130.545 203.947 131.619 203.947 131.619C203.992 131.8 204.104 131.958 204.26 132.062C204.416 132.165 204.605 132.207 204.79 132.179C204.975 132.151 205.143 132.055 205.261 131.91C205.379 131.765 205.439 131.581 205.429 131.394C205.429 131.394 205.277 130.352 205.077 128.485C204.876 126.617 204.628 123.956 204.468 120.75C204.427 119.828 204.387 118.842 204.363 117.832C204.892 117.784 208.139 117.455 209.461 116.702C210.784 115.949 212.074 114.754 212.267 113.263C212.323 112.914 212.306 112.557 212.216 112.215C212.126 111.873 211.965 111.554 211.743 111.278C211.522 111.002 211.245 110.776 210.931 110.614C210.616 110.452 210.271 110.358 209.918 110.338C207.786 110.282 205.51 113.376 204.876 115.147C204.836 115.259 204.508 116.67 204.363 117.391C204.363 116.782 204.363 116.181 204.363 115.54C204.363 114.634 204.363 113.664 204.363 112.726C204.363 112.245 204.419 111.756 204.444 111.259C204.468 110.762 204.532 110.282 204.572 109.793C204.652 109.063 204.764 108.326 204.884 107.58C205.838 107.628 208.555 107.709 209.83 107.22C211.104 106.731 212.708 105.689 213.116 104.246C213.226 103.91 213.264 103.554 213.228 103.202C213.191 102.85 213.081 102.51 212.904 102.204C212.727 101.897 212.487 101.632 212.201 101.424C211.914 101.217 211.587 101.072 211.241 101C209.149 100.615 206.431 103.332 205.526 105.007L205.173 105.881C205.301 105.16 205.437 104.438 205.598 103.717C206.047 101.657 206.576 99.5728 207.097 97.4807L207.409 96.1742C208.211 96.2143 211.161 96.3345 212.499 95.8215C213.838 95.3085 215.377 94.2906 215.794 92.8478C215.902 92.511 215.939 92.1551 215.901 91.8032C215.863 91.4513 215.752 91.1113 215.574 90.8052C215.397 90.4991 215.157 90.2338 214.87 90.0264C214.583 89.819 214.256 89.6742 213.91 89.6015C211.818 89.2167 209.101 91.934 208.195 93.6092C208.195 93.6734 207.986 94.1142 207.786 94.6192C208.051 93.481 208.299 92.3428 208.515 91.2046C208.895 89.2545 209.142 87.2807 209.253 85.2971C209.702 85.2971 213.044 85.5055 214.495 84.9444C215.513 84.572 216.422 83.9522 217.14 83.1409C217.859 83.9522 218.768 84.572 219.785 84.9444C221.236 85.5055 224.595 85.3212 225.027 85.2971C225.143 87.2804 225.389 89.2538 225.765 91.2046C225.981 92.3428 226.23 93.481 226.494 94.6192C226.294 94.1142 226.118 93.6734 226.085 93.6092C225.188 91.934 222.47 89.2167 220.37 89.6015C220.024 89.674 219.697 89.8188 219.411 90.0263C219.124 90.2338 218.884 90.4993 218.707 90.8057C218.53 91.112 218.42 91.4522 218.383 91.804C218.347 92.1559 218.385 92.5115 218.495 92.8478C218.912 94.2906 220.459 95.3085 221.781 95.8215C223.104 96.3345 226.085 96.2143 226.871 96.1742C226.975 96.6151 227.079 97.0479 227.192 97.4807C227.705 99.5728 228.234 101.657 228.691 103.717C228.851 104.438 228.979 105.16 229.115 105.881C228.939 105.44 228.787 105.079 228.755 105.007C227.857 103.332 225.14 100.615 223.04 101C222.693 101.072 222.366 101.217 222.08 101.424C221.793 101.632 221.554 101.897 221.377 102.204C221.2 102.51 221.089 102.85 221.053 103.202C221.016 103.554 221.054 103.91 221.164 104.246C221.581 105.689 223.128 106.707 224.45 107.22C225.773 107.733 228.458 107.628 229.404 107.58C229.516 108.326 229.636 109.063 229.708 109.793C229.757 110.282 229.829 110.754 229.845 111.259C229.861 111.764 229.893 112.245 229.917 112.726C229.917 113.664 229.917 114.634 229.917 115.54C229.917 116.181 229.917 116.782 229.917 117.391C229.765 116.67 229.436 115.259 229.396 115.147C228.763 113.352 226.486 110.258 224.354 110.338C224.001 110.358 223.656 110.452 223.342 110.614C223.027 110.776 222.75 111.002 222.529 111.278C222.307 111.554 222.146 111.873 222.056 112.215C221.966 112.557 221.949 112.914 222.006 113.263C222.198 114.754 223.609 115.997 224.811 116.702C226.013 117.407 229.38 117.784 229.909 117.832C229.909 118.842 229.853 119.828 229.805 120.75C229.652 123.956 229.404 126.625 229.204 128.485C229.003 130.344 228.843 131.394 228.843 131.394C228.833 131.581 228.893 131.765 229.011 131.91C229.129 132.055 229.297 132.151 229.482 132.179C229.667 132.207 229.856 132.165 230.012 132.062C230.168 131.958 230.28 131.8 230.326 131.619C230.326 131.619 230.462 130.537 230.63 128.653C230.799 126.77 230.983 124.068 231.063 120.822C231.063 119.796 231.103 118.706 231.103 117.576C231.624 117.496 234.838 116.958 236.121 116.109C237.403 115.259 238.598 114.001 238.686 112.494C238.723 112.135 238.682 111.771 238.567 111.429C238.451 111.087 238.264 110.773 238.017 110.51C237.77 110.246 237.47 110.038 237.135 109.901C236.801 109.763 236.442 109.699 236.081 109.712Z" fill="#263238"/>
<path d="M44.4855 150.496C44.4855 150.496 44.6218 155.938 45.5436 158.856C46.2136 160.852 47.017 162.802 47.9482 164.691C47.9482 164.691 44.5015 166.551 42.9065 166.687C41.3114 166.823 39.1953 159.649 39.1953 154.744C39.1953 149.838 41.0388 148.371 44.4855 150.496Z" fill="white" stroke="#263238" stroke-width="0.48509" stroke-linecap="round" stroke-linejoin="round"/>
<path d="M34.8749 136.236C34.8749 136.236 40.4857 136.027 42.6259 137.623C44.766 139.218 45.5435 146.247 46.2088 149.037L46.8741 151.826C45.3131 152.442 43.7047 152.93 42.0648 153.285C41.4397 153.331 40.8184 153.42 40.2052 153.549C40.2052 153.549 38.5139 143.899 36.5261 141.077C35.5209 139.626 34.4118 138.249 33.2076 136.957C33.2076 136.957 32.3099 135.883 34.8749 136.236Z" fill="white" stroke="#263238" stroke-width="0.48509" stroke-linecap="round" stroke-linejoin="round"/>
<path d="M30.29 127.667C29.8265 129.443 29.1112 131.144 28.1658 132.717C26.5627 135.37 25.9055 137.222 21 137.358C16.0944 137.494 13.5695 141.494 11.4695 153.413C9.36941 165.332 8.15105 178.494 11.734 186.854C15.3169 195.214 25.8974 194.397 32.8068 191.896C39.7162 189.395 41.3033 181.548 41.4316 173.059C41.5598 164.571 41.5678 151.161 40.2372 144.388C38.9067 137.615 35.0672 136.164 33.3359 135.635C31.6045 135.106 33.8729 131.915 33.8729 131.915L30.29 127.667Z" fill="white"/>
<mask id="mask1_4_1344" style="mask-type:luminance" maskUnits="userSpaceOnUse" x="9" y="127" width="33" height="67">
<path d="M30.29 127.667C29.8265 129.443 29.1112 131.144 28.1658 132.717C26.5627 135.37 25.9055 137.222 21 137.358C16.0944 137.494 13.5695 141.494 11.4695 153.413C9.36941 165.332 8.15105 178.494 11.734 186.854C15.3169 195.214 25.8974 194.397 32.8068 191.896C39.7162 189.395 41.3033 181.548 41.4316 173.059C41.5598 164.571 41.5678 151.161 40.2372 144.388C38.9067 137.615 35.0672 136.164 33.3359 135.635C31.6045 135.106 33.8729 131.915 33.8729 131.915L30.29 127.667Z" fill="white"/>
</mask>
<g mask="url(#mask1_4_1344)">
<g style="mix-blend-mode:multiply" opacity="0.4">
<path d="M16.2788 153.71C16.2788 153.71 15.1085 156.916 17.1845 159.409C19.2605 161.902 24.3985 160.707 23.4046 161.87C22.4106 163.032 17.962 164.467 17.1845 165.629C16.9567 165.922 16.8225 166.277 16.7997 166.647C16.7768 167.017 16.8662 167.386 17.0563 167.705C17.0563 167.705 12.9683 168.434 12.6798 167.745C12.3912 167.056 15.0844 157.397 15.0844 157.397L16.2788 153.71Z" fill="#98DAD9"/>
</g>
<g style="mix-blend-mode:multiply" opacity="0.4">
<path d="M17.5292 171.336C17.5292 171.336 14.6837 174.446 14.8119 175.344C14.9402 176.241 17.5292 174.181 17.0162 175.472C16.5032 176.762 14.2909 178.846 13.6417 179.88C12.9924 180.914 10.4355 182.75 10.4355 182.75L9.52168 175.736L9.34534 174.51L17.5292 171.336Z" fill="#98DAD9"/>
</g>
</g>
<path d="M30.29 127.667C29.8265 129.443 29.1112 131.144 28.1658 132.717C26.5627 135.37 25.9055 137.222 21 137.358C16.0944 137.494 13.5695 141.494 11.4695 153.413C9.36941 165.332 8.15105 178.494 11.734 186.854C15.3169 195.214 25.8974 194.397 32.8068 191.896C39.7162 189.395 41.3033 181.548 41.4316 173.059C41.5598 164.571 41.5678 151.161 40.2372 144.388C38.9067 137.615 35.0672 136.164 33.3359 135.635C31.6045 135.106 33.8729 131.915 33.8729 131.915L30.29 127.667Z" stroke="#263238" stroke-width="0.48509" stroke-linecap="round" stroke-linejoin="round"/>
<path d="M34.8749 136.236C34.3789 135.994 33.8642 135.793 33.3359 135.635C31.6125 135.106 33.8729 131.915 33.8729 131.915L30.29 127.667C29.8265 129.443 29.1112 131.144 28.1658 132.717C26.8112 134.969 26.1219 136.645 22.9317 137.182C23.9435 138.64 24.6823 140.269 25.1119 141.991C25.9135 145.446 27.6288 151.017 30.819 149.694C33.8489 148.436 36.1493 141.165 34.8749 136.236Z" fill="white"/>
<mask id="mask2_4_1344" style="mask-type:luminance" maskUnits="userSpaceOnUse" x="22" y="127" width="14" height="23">
<path d="M34.8749 136.236C34.3789 135.994 33.8642 135.793 33.3359 135.635C31.6125 135.106 33.8729 131.915 33.8729 131.915L30.29 127.667C29.8265 129.443 29.1112 131.144 28.1658 132.717C26.8112 134.969 26.1219 136.645 22.9317 137.182C23.9435 138.64 24.6823 140.269 25.1119 141.991C25.9135 145.446 27.6288 151.017 30.819 149.694C33.8489 148.436 36.1493 141.165 34.8749 136.236Z" fill="white"/>
</mask>
<g mask="url(#mask2_4_1344)">
<g style="mix-blend-mode:multiply" opacity="0.4">
<path d="M26.6029 137.118C25.7624 137.715 24.8237 138.159 23.8295 138.432L23.028 137.061C23.028 137.061 26.3384 137.47 29.6488 129.847C30.3687 131.259 31.386 132.498 32.6306 133.479L28.6789 133.984" fill="#98DAD9"/>
</g>
</g>
<path d="M34.8748 136.236C34.3789 135.994 33.8642 135.793 33.3359 135.635C31.6125 135.106 33.8729 131.915 33.8729 131.915L30.29 127.667C29.8265 129.443 29.1112 131.144 28.1658 132.717C26.8112 134.969 26.1219 136.645 22.9317 137.182C23.9435 138.64 24.6823 140.269 25.1119 141.991C25.9135 145.446 27.6288 151.017 30.819 149.694C33.8489 148.436 36.1493 141.165 34.8748 136.236Z" stroke="#263238" stroke-width="0.48509" stroke-linecap="round" stroke-linejoin="round"/>
<path d="M16.6074 152.475L20.4228 149.085" stroke="#263238" stroke-width="0.48509" stroke-linecap="round" stroke-linejoin="round"/>
<path d="M21 137.358C21 137.358 22.1222 138.897 22.9718 143.354C23.8215 147.81 26.3624 151.842 28.9113 152.684C31.4603 153.525 32.7267 152.684 32.7267 152.684" stroke="#263238" stroke-width="0.48509" stroke-linecap="round" stroke-linejoin="round"/>
<path d="M8.39155 152.091C8.39155 152.091 6.4037 169.725 6.26744 172.787C6.13117 175.849 7.32549 175.047 9.32136 174.518C11.3172 173.989 22.7233 168.907 25.3524 168.009C27.9815 167.112 28.4064 166.815 30.5305 167.08C32.3899 167.358 34.2628 167.538 36.1413 167.617C37.4719 167.617 36.0051 164.563 34.0172 164.034C32.0294 163.505 32.1576 163.633 29.9053 164.162C27.6529 164.691 24.0619 166.286 20.2145 167.08C16.367 167.873 13.0486 168.146 12.6558 167.745C12.2631 167.344 15.0605 155.802 15.0605 155.802L8.39155 152.091Z" fill="white" stroke="#263238" stroke-width="0.48509" stroke-linecap="round" stroke-linejoin="round"/>
<path d="M22.9317 137.182C21.4521 137.358 19.9576 137.372 18.4751 137.222C17.119 137.125 15.7577 137.313 14.4783 137.772C13.1988 138.232 12.0294 138.954 11.0447 139.891C8.92056 142.007 7.03691 148.908 6.23536 150.64C5.4338 152.371 5.17731 153.157 5.17731 153.157L14.9963 157.405L19.1083 145.726" fill="white"/>
<mask id="mask3_4_1344" style="mask-type:luminance" maskUnits="userSpaceOnUse" x="5" y="137" width="18" height="21">
<path d="M22.9317 137.182C21.4521 137.358 19.9576 137.372 18.4751 137.222C17.119 137.125 15.7577 137.313 14.4783 137.772C13.1988 138.232 12.0294 138.954 11.0447 139.891C8.92056 142.007 7.03691 148.908 6.23536 150.64C5.4338 152.371 5.17731 153.157 5.17731 153.157L14.9963 157.405L19.1083 145.726" fill="white"/>
</mask>
<g mask="url(#mask3_4_1344)">
<g style="mix-blend-mode:multiply" opacity="0.4">
<path d="M22.8276 137.094C20.8977 137.301 18.9572 137.395 17.0163 137.374C15.8439 137.391 14.6897 137.667 13.6365 138.183C12.5834 138.698 11.6572 139.44 10.9245 140.356C9.10497 142.432 5.37775 153.077 5.37775 153.077L7.66217 154.054C7.66217 154.054 10.147 142.432 12.9925 140.62C15.4942 139.129 18.3794 138.407 21.2886 138.544C22.0901 138.544 22.9879 138.488 23.557 138.432L22.8276 137.094Z" fill="#98DAD9"/>
</g>
</g>
<path d="M22.9317 137.182C21.4521 137.358 19.9576 137.372 18.4751 137.222C17.119 137.125 15.7577 137.313 14.4783 137.772C13.1988 138.232 12.0294 138.954 11.0447 139.891C8.92056 142.007 7.03691 148.908 6.23536 150.64C5.4338 152.371 5.17731 153.157 5.17731 153.157L14.9963 157.405L19.1083 145.726" stroke="#263238" stroke-width="0.48509" stroke-linecap="round" stroke-linejoin="round"/>
<path d="M10.4514 181.572C10.4514 181.572 14.4592 177.965 17.2406 177.756" stroke="#263238" stroke-width="0.48509" stroke-linecap="round" stroke-linejoin="round"/>
<path d="M17.6654 176.025C15.6951 176.893 13.781 177.884 11.9343 178.991" stroke="#263238" stroke-width="0.48509" stroke-linecap="round" stroke-linejoin="round"/>
<path d="M42.5154 123.971C44.0813 117.751 42.4553 111.979 38.8836 111.08C35.3119 110.181 31.147 114.495 29.5811 120.715C28.0152 126.936 29.6412 132.707 33.2129 133.606C36.7846 134.505 40.9495 130.192 42.5154 123.971Z" fill="white"/>
<mask id="mask4_4_1344" style="mask-type:luminance" maskUnits="userSpaceOnUse" x="28" y="110" width="16" height="24">
<path d="M42.5154 123.971C44.0813 117.751 42.4553 111.979 38.8836 111.08C35.3119 110.181 31.147 114.495 29.5811 120.715C28.0152 126.936 29.6412 132.707 33.2129 133.606C36.7846 134.505 40.9495 130.192 42.5154 123.971Z" fill="white"/>
</mask>
<g mask="url(#mask4_4_1344)">
<g style="mix-blend-mode:multiply" opacity="0.4">
<path d="M32.5342 133.366C32.0853 132.469 31.4922 130.312 31.917 128.95C32.5663 126.882 36.0611 124.557 36.0611 124.557C36.0611 124.557 34.458 124.942 32.8548 125.19C31.2517 125.439 29.0314 125.8 29.0314 125.8L29.5845 129.679C30.3299 131.427 31.2357 132.853 32.5342 133.366Z" fill="#98DAD9"/>
</g>
</g>
<path d="M42.5154 123.971C44.0813 117.751 42.4553 111.979 38.8836 111.08C35.3119 110.181 31.147 114.495 29.5811 120.715C28.0152 126.936 29.6412 132.707 33.2129 133.606C36.7846 134.505 40.9495 130.192 42.5154 123.971Z" stroke="#263238" stroke-width="0.48509" stroke-linecap="round" stroke-linejoin="round"/>
<g style="mix-blend-mode:multiply" opacity="0.4">
<path d="M29.6327 130.024C29.0235 131.226 27.1318 134.977 25.176 136.212C24.624 136.568 24.0214 136.838 23.3885 137.013" fill="#98DAD9"/>
</g>
<g style="mix-blend-mode:multiply" opacity="0.4">
<path d="M32.8228 149.694C32.8228 149.694 33.3438 157.076 32.8228 158.896C32.3018 160.715 30.2338 160.579 31.2678 161.613C32.3941 162.551 33.6104 163.375 34.8988 164.074L36.7104 165.893L37.1191 163.136C37.1191 163.136 35.8206 163.529 34.5221 158.992C33.6934 155.946 33.1249 152.836 32.8228 149.694Z" fill="#98DAD9"/>
</g>
<path d="M38.9949 125.575C38.5737 126.186 38.2993 126.885 38.1933 127.619C38.1933 127.86 38.1933 128.076 38.1933 128.252C38.2005 128.337 38.1893 128.422 38.1605 128.501C38.1318 128.581 38.0861 128.653 38.0267 128.713C37.9672 128.773 37.8955 128.82 37.8163 128.85C37.7371 128.879 37.6525 128.892 37.5681 128.886L36.6143 128.813" stroke="#263238" stroke-width="0.48509" stroke-linecap="round" stroke-linejoin="round"/>
<path d="M34.9149 130.737C34.4717 130.787 34.0266 130.665 33.6704 130.396C33.3143 130.128 33.0741 129.734 32.9991 129.294" stroke="#263238" stroke-width="0.48509" stroke-linecap="round" stroke-linejoin="round"/>
<path d="M36.3577 125.335L35.8767 126.297C35.5957 126.431 35.2782 126.468 34.9737 126.403C34.6692 126.338 34.3949 126.173 34.1935 125.936" stroke="#263238" stroke-width="0.48509" stroke-linecap="round" stroke-linejoin="round"/>
<path d="M40.1891 126.778L39.4757 127.739C39.4757 127.739 38.5139 127.739 38.5139 127.018" stroke="#263238" stroke-width="0.48509" stroke-linecap="round" stroke-linejoin="round"/>
<path d="M43.9885 118.249C45.5916 113.528 41.688 108.63 35.8607 108.735C30.0334 108.839 25.9535 114.538 24.0218 118.441C22.2154 120.252 20.6623 122.298 19.4048 124.525C17.0002 128.637 17.0002 131.026 15.1566 133.679C13.313 136.332 7.86245 136.468 4.67226 139.923C1.48208 143.378 1.46605 147.353 2.94892 150.007C4.4318 152.66 5.35358 156.106 3.47795 158.495C1.60231 160.884 -0.233245 164.106 1.22558 169.516C1.49996 170.725 2.13665 171.82 3.05052 172.657C3.96438 173.493 5.11185 174.031 6.33949 174.197C6.25945 173.745 6.23522 173.285 6.26735 172.827C6.37156 170.422 7.58992 159.353 8.12696 154.455L5.2093 153.189C5.2093 153.189 5.47382 152.387 6.26735 150.672C7.06089 148.957 8.9205 142.039 11.0767 139.923C12.062 138.987 13.2318 138.267 14.5112 137.809C15.7906 137.351 17.1516 137.164 18.5071 137.262C19.9896 137.412 21.4841 137.398 22.9637 137.222C23.8574 137.113 24.7112 136.788 25.4513 136.276C26.1915 135.763 26.7957 135.078 27.212 134.28L27.4204 133.935V133.895C27.6448 133.527 27.8692 133.134 28.1177 132.725C28.6932 131.755 29.1865 130.739 29.5926 129.687C29.188 128.433 28.9719 127.125 28.9513 125.808C31.5644 125.719 38.7944 125.078 42.4495 120.782C42.6659 120.517 42.8663 120.253 43.0426 119.98C42.9904 121.333 42.797 122.676 42.4655 123.988C41.7911 127.002 40.2699 129.761 38.081 131.94L37.6963 132.268L37.4558 132.461C37.3356 132.549 37.2234 132.637 37.1031 132.709C37.0187 132.771 36.9304 132.827 36.8386 132.877C36.73 132.95 36.6176 133.017 36.502 133.078L36.2214 133.222L35.8848 133.366L35.6042 133.47L35.2676 133.575L34.987 133.647C34.3882 133.783 33.7663 133.783 33.1675 133.647L32.9351 133.567C32.68 134.045 32.5979 134.597 32.7026 135.13C32.7439 135.264 32.8197 135.385 32.9223 135.48C33.025 135.576 33.151 135.643 33.2877 135.675C33.8022 135.829 34.3035 136.025 34.7866 136.26C34.4813 139.5 33.9456 142.714 33.1835 145.879C31.853 151.449 33.3118 156.756 34.9069 160.603C36.502 164.451 41.4075 166.839 43.1308 164.611C44.8542 162.383 44.3251 159.97 43.2671 154.656C42.209 149.341 39.4196 141.654 39.4196 135.811C39.4196 129.968 42.8663 128.116 44.5977 124.669C45.8401 122.177 44.7339 119.548 43.9885 118.249Z" fill="#263238"/>
<path d="M42.3694 116.462C42.3694 116.462 36.2455 121.824 30.3461 122.401C24.4466 122.978 23.8375 122.97 23.8375 122.97" stroke="white" stroke-width="0.345985" stroke-linecap="round" stroke-linejoin="round"/>
<path d="M41.0308 112.438C41.0308 112.438 35.476 118.762 30.8831 120.293C26.2902 121.824 24.3745 121.824 24.3745 121.824" stroke="white" stroke-width="0.345985" stroke-linecap="round" stroke-linejoin="round"/>
<path d="M37.7764 110.145C37.7764 110.145 36.2454 114.955 32.6064 117.231" stroke="white" stroke-width="0.345985" stroke-linecap="round" stroke-linejoin="round"/>
<path d="M27.2441 128.14C27.2441 128.14 27.0518 134.272 23.6051 135.226C20.1584 136.18 16.335 134.272 11.9264 136.565C10.2058 137.49 8.80789 138.918 7.91869 140.658C7.02948 142.397 6.69118 144.367 6.94879 146.303" stroke="white" stroke-width="0.345985" stroke-linecap="round" stroke-linejoin="round"/>
<path d="M5.6101 172.178C4.69693 170.852 4.08642 169.343 3.82185 167.755C3.55728 166.168 3.64511 164.541 4.07913 162.992C5.6101 157.822 6.75632 155.906 6.75632 155.906" stroke="white" stroke-width="0.345985" stroke-linecap="round" stroke-linejoin="round"/>
<path d="M39.5239 138.095C39.5239 138.095 40.4778 145.374 37.2235 149.967C33.9691 154.559 36.0772 160.884 36.0772 160.884" stroke="white" stroke-width="0.345985" stroke-linecap="round" stroke-linejoin="round"/>
<path d="M39.6923 131.394C39.6923 131.394 39.8846 133.503 37.1994 138.865C34.5142 144.227 33.7527 145.951 33.5604 149.782" stroke="white" stroke-width="0.345985" stroke-linecap="round" stroke-linejoin="round"/>
<path d="M58.0719 192.361C58.0719 192.361 62.3762 191.944 64.8691 193.05C67.3619 194.156 67.923 195.96 68.476 194.3C69.0291 192.641 69.0291 191.663 66.9531 190.557C64.8771 189.451 64.0354 190.14 63.2098 189.307C62.8045 188.872 62.3373 188.499 61.8231 188.201C61.8231 188.201 59.6028 187.92 59.4586 189.171C59.3143 190.421 57.2463 190.83 57.2463 190.83L58.0719 192.361Z" fill="white" stroke="#263238" stroke-width="0.48509" stroke-miterlimit="10"/>
<path d="M76.0667 159.786C74.6079 156.467 68.5241 158.744 61.4704 164.427C52.3407 171.785 45.247 173.5 41.4316 173.797V173.676C39.4437 172.747 36.6223 172.707 33.2638 173.252C33.1596 173.099 33.0554 172.947 32.9592 172.787C26.5467 162.839 24.8635 161.116 22.7394 162.839C20.6152 164.563 18.2266 167.216 19.0201 175.448C19.091 176.095 19.2143 176.736 19.3889 177.364C16.2321 178.864 13.2305 180.67 10.4275 182.758C10.7359 184.16 11.1705 185.531 11.726 186.854C15.2929 195.19 25.8574 194.429 32.7588 191.92C34.8457 193.049 37.1132 193.805 39.4598 194.156C44.9264 194.838 48.6215 194.637 50.7857 193.811L54.4568 196.809C60.2355 192.425 65.1312 186.985 68.8848 180.778C70.7148 177.683 72.3375 174.47 73.7422 171.16C76.0267 165.99 76.8042 161.453 76.0667 159.786Z" fill="#263238"/>
<path d="M32.9431 172.755C33.7074 173.95 34.5425 175.098 35.444 176.193L60.3643 171.721L52.5171 165.436L30.29 168.691C31.0515 169.861 31.9412 171.224 32.9431 172.755Z" fill="#98DAD9" stroke="#263238" stroke-width="0.48509" stroke-linecap="round" stroke-linejoin="round"/>
<path opacity="0.5" d="M32.9431 172.755C33.7074 173.95 34.5425 175.098 35.444 176.193L60.3643 171.721L52.5171 165.436L30.29 168.691C31.0515 169.861 31.9412 171.224 32.9431 172.755Z" fill="white" stroke="#263238" stroke-width="0.52825" stroke-linecap="round" stroke-linejoin="round"/>
<path d="M38.4899 158.03L34.6104 175.159C34.8829 175.52 35.1634 175.873 35.4119 176.217L60.3643 171.721L65.2938 153.782L38.4899 158.03Z" fill="#98DAD9" stroke="#263238" stroke-width="0.48509" stroke-linecap="round" stroke-linejoin="round"/>
<path d="M51.1865 167.993C50.704 168.13 50.1919 168.122 49.7142 167.969C49.2365 167.816 48.8145 167.526 48.5011 167.134C48.1877 166.743 47.9967 166.267 47.9522 165.768C47.9076 165.268 48.0114 164.767 48.2505 164.326C48.4897 163.885 48.8536 163.524 49.2967 163.289C49.7397 163.054 50.2423 162.955 50.7414 163.005C51.2405 163.054 51.714 163.249 52.1026 163.566C52.4911 163.883 52.7775 164.308 52.9259 164.787C53.1155 165.443 53.0394 166.147 52.7138 166.747C52.3883 167.347 51.8396 167.795 51.1865 167.993Z" fill="white"/>
<path opacity="0.5" d="M38.4899 158.03L34.6104 175.159C34.8829 175.52 35.1634 175.873 35.4119 176.217L60.3643 171.721L65.2938 153.782L38.4899 158.03Z" fill="white" stroke="#263238" stroke-width="0.52825" stroke-linecap="round" stroke-linejoin="round"/>
<path d="M51.1865 167.993C50.704 168.13 50.1919 168.122 49.7142 167.969C49.2365 167.816 48.8145 167.526 48.5011 167.134C48.1877 166.743 47.9967 166.267 47.9522 165.768C47.9076 165.268 48.0114 164.767 48.2505 164.326C48.4897 163.885 48.8536 163.524 49.2967 163.289C49.7397 163.054 50.2423 162.955 50.7414 163.005C51.2405 163.054 51.714 163.249 52.1026 163.566C52.4911 163.883 52.7775 164.308 52.9259 164.787C53.1155 165.443 53.0394 166.147 52.7138 166.747C52.3883 167.347 51.8396 167.795 51.1865 167.993Z" fill="white" stroke="#263238" stroke-width="0.52825" stroke-linecap="round" stroke-linejoin="round"/>
<path d="M49.944 192.417C49.944 192.417 46.5134 194.966 44.5816 196.024C42.6499 197.082 42.0327 196.721 40.1811 198.485C38.3295 200.248 36.7585 201.474 36.3176 202.18C35.8767 202.885 35.3477 203.582 35.0832 202.003C34.9751 201.193 35.0809 200.369 35.3903 199.612C35.6997 198.856 36.2018 198.193 36.8466 197.691C38.073 196.809 39.7483 196.457 39.7483 195.286C39.7079 194.775 39.8689 194.269 40.1968 193.875C40.5248 193.481 40.9938 193.231 41.5037 193.178C42.4735 193.178 43.1068 194.14 44.9343 193.178C46.1905 192.402 47.2213 191.311 47.9241 190.012L49.944 192.417Z" fill="white" stroke="#263238" stroke-width="0.48509" stroke-miterlimit="10"/>
<path d="M19.5972 178.245C19.5972 178.245 23.3886 187.311 32.1255 191.431" stroke="white" stroke-width="0.345985" stroke-miterlimit="10"/>
<path d="M49.0704 185.668C49.0704 185.668 54.4969 182.95 62.4483 169.212" stroke="white" stroke-width="0.345985" stroke-miterlimit="10"/>
<path d="M34.5221 175.44C34.5221 175.44 40.2692 183.864 46.9702 186.734" stroke="white" stroke-width="0.345985" stroke-miterlimit="10"/>
<path d="M137.666 89.6736H88.4507C85.0552 89.6736 82.3027 92.4261 82.3027 95.8215V199.719C82.3027 203.114 85.0552 205.867 88.4507 205.867H137.666C141.061 205.867 143.814 203.114 143.814 199.719V95.8215C143.814 92.4261 141.061 89.6736 137.666 89.6736Z" fill="#263238"/>
<path d="M141.081 102.434H85.036V193.114H141.081V102.434Z" fill="white"/>
<mask id="mask5_4_1344" style="mask-type:luminance" maskUnits="userSpaceOnUse" x="85" y="102" width="57" height="92">
<path d="M141.081 102.434H85.036V193.114H141.081V102.434Z" fill="white"/>
</mask>
<g mask="url(#mask5_4_1344)">
<g style="mix-blend-mode:multiply" opacity="0.4">
<path d="M141.081 162.639L88.8354 193.106H141.081V162.639Z" fill="#98DAD9"/>
</g>
</g>
<path d="M141.081 102.434H85.036V193.114H141.081V102.434Z" stroke="#37474F" stroke-width="0.52825" stroke-miterlimit="10"/>
<path d="M119.15 96.086H106.967C106.754 96.086 106.55 96.0016 106.4 95.8512C106.249 95.7009 106.165 95.4971 106.165 95.2845C106.165 95.0719 106.249 94.868 106.4 94.7177C106.55 94.5674 106.754 94.4829 106.967 94.4829H119.15C119.363 94.4829 119.567 94.5674 119.717 94.7177C119.867 94.868 119.952 95.0719 119.952 95.2845C119.952 95.4971 119.867 95.7009 119.717 95.8512C119.567 96.0016 119.363 96.086 119.15 96.086Z" fill="#98DAD9"/>
<path opacity="0.4" d="M119.15 96.086H106.967C106.754 96.086 106.55 96.0016 106.4 95.8512C106.249 95.7009 106.165 95.4971 106.165 95.2845C106.165 95.0719 106.249 94.868 106.4 94.7177C106.55 94.5674 106.754 94.4829 106.967 94.4829H119.15C119.363 94.4829 119.567 94.5674 119.717 94.7177C119.867 94.868 119.952 95.0719 119.952 95.2845C119.952 95.4971 119.867 95.7009 119.717 95.8512C119.567 96.0016 119.363 96.086 119.15 96.086Z" fill="white"/>
<path d="M116.385 198.228C116.385 197.57 116.19 196.927 115.824 196.38C115.459 195.833 114.939 195.407 114.331 195.155C113.723 194.903 113.055 194.837 112.409 194.966C111.764 195.094 111.171 195.411 110.706 195.876C110.241 196.341 109.924 196.934 109.796 197.579C109.667 198.224 109.733 198.893 109.985 199.501C110.237 200.109 110.663 200.628 111.21 200.994C111.757 201.359 112.4 201.554 113.058 201.554C113.941 201.554 114.787 201.204 115.41 200.58C116.034 199.956 116.385 199.11 116.385 198.228Z" fill="#98DAD9" stroke="#37474F" stroke-width="0.704333" stroke-miterlimit="10"/>
<path d="M114.742 196.545H111.375V199.911H114.742V196.545Z" fill="#98DAD9" stroke="#37474F" stroke-width="0.52825" stroke-linecap="round" stroke-linejoin="round"/>
<path opacity="0.6" d="M114.742 196.545H111.375V199.911H114.742V196.545Z" fill="white" stroke="#37474F" stroke-width="0.52825" stroke-linecap="round" stroke-linejoin="round"/>
<path d="M114.742 196.545H111.375V199.911H114.742V196.545Z" stroke="#37474F" stroke-width="0.52825" stroke-linecap="round" stroke-linejoin="round"/>
<path d="M304.181 197.194V125.479C304.181 120.53 300.169 116.518 295.22 116.518L143.83 116.518C138.881 116.518 134.869 120.53 134.869 125.479V197.194C134.869 202.143 138.881 206.155 143.83 206.155H295.22C300.169 206.155 304.181 202.143 304.181 197.194Z" fill="#98DAD9" stroke="#263238" stroke-width="0.868674" stroke-miterlimit="10"/>
<path d="M295.155 202.172V120.501L143.894 120.501V202.172H295.155Z" fill="white"/>
<mask id="mask6_4_1344" style="mask-type:luminance" maskUnits="userSpaceOnUse" x="143" y="120" width="153" height="83">
<path d="M295.155 202.172V120.501L143.894 120.501V202.172H295.155Z" fill="white"/>
</mask>
<g mask="url(#mask6_4_1344)">
<g style="mix-blend-mode:multiply" opacity="0.4">
<path d="M295.155 136.893L183.234 202.164H295.155V136.893Z" fill="#98DAD9"/>
</g>
</g>
<path d="M295.155 202.172V120.501L143.894 120.501V202.172H295.155Z" stroke="#263238" stroke-width="0.651505" stroke-miterlimit="10"/>
<path d="M299.227 162.559C298.983 162.559 298.744 162.486 298.541 162.35C298.337 162.214 298.179 162.021 298.086 161.795C297.993 161.569 297.969 161.32 298.017 161.081C298.065 160.841 298.184 160.621 298.357 160.449C298.531 160.277 298.751 160.16 298.991 160.113C299.231 160.066 299.48 160.092 299.705 160.186C299.931 160.281 300.123 160.441 300.257 160.645C300.392 160.849 300.463 161.088 300.462 161.333C300.46 161.659 300.329 161.97 300.097 162.2C299.866 162.43 299.553 162.559 299.227 162.559Z" fill="#263238"/>
<path d="M277.313 117.335H282.723C282.887 117.335 283.02 117.202 283.02 117.039V116.814C283.02 116.65 282.887 116.518 282.723 116.518H277.313C277.149 116.518 277.016 116.65 277.016 116.814V117.039C277.016 117.202 277.149 117.335 277.313 117.335Z" fill="#98DAD9" stroke="#263238" stroke-width="0.652671" stroke-miterlimit="10"/>
<path d="M258.204 117.327H268.568C268.622 117.328 268.676 117.319 268.727 117.298C268.777 117.278 268.823 117.248 268.862 117.21C268.901 117.172 268.932 117.127 268.953 117.077C268.974 117.027 268.985 116.973 268.985 116.918C268.985 116.864 268.974 116.81 268.953 116.76C268.932 116.71 268.901 116.665 268.862 116.627C268.823 116.588 268.777 116.558 268.727 116.538C268.676 116.518 268.622 116.509 268.568 116.51H258.204C258.095 116.51 257.991 116.553 257.915 116.629C257.838 116.706 257.795 116.81 257.795 116.918C257.795 117.027 257.838 117.131 257.915 117.207C257.991 117.284 258.095 117.327 258.204 117.327Z" fill="#98DAD9" stroke="#263238" stroke-width="0.652671" stroke-miterlimit="10"/>
<path d="M286.683 208.424C286.683 209.618 279.533 210.588 270.716 210.588C261.899 210.588 254.741 209.626 254.741 208.424C254.741 207.221 261.891 206.252 270.716 206.252C279.541 206.252 286.683 207.221 286.683 208.424Z" fill="#98DAD9"/>
<path d="M256.969 176.298C256.969 194.541 271.397 209.322 271.397 209.322C271.397 209.322 285.825 194.541 285.825 176.298C285.825 158.054 271.397 143.274 271.397 143.274C271.397 143.274 256.969 158.054 256.969 176.298Z" fill="#263238"/>
<path d="M271.421 209.322V143.274" stroke="white" stroke-width="0.738" stroke-miterlimit="10"/>
<path d="M271.421 166.751L263.326 159.689" stroke="white" stroke-width="0.738" stroke-miterlimit="10"/>
<path d="M271.55 177.668L281.561 163.152" stroke="white" stroke-width="0.738" stroke-miterlimit="10"/>
<path d="M271.421 183.96L259.478 173.3" stroke="white" stroke-width="0.738" stroke-miterlimit="10"/>
<path d="M271.55 192.433L283.365 181.9" stroke="white" stroke-width="0.738" stroke-miterlimit="10"/>
<path d="M271.55 199.751L262.3 192.433" stroke="white" stroke-width="0.738" stroke-miterlimit="10"/>
<path d="M246.958 200.007C253.98 207.927 265.931 208.776 265.931 208.776C265.931 208.776 266.516 196.809 259.518 188.89C252.521 180.971 240.545 180.121 240.545 180.121C240.545 180.121 239.912 192.128 246.958 200.007Z" fill="#263238"/>
<path d="M265.931 208.809L240.521 180.153" stroke="white" stroke-width="0.738" stroke-miterlimit="10"/>
<path d="M249.555 190.341L243.327 190.388" stroke="white" stroke-width="0.738" stroke-miterlimit="10"/>
<path d="M253.811 195.03L252.569 184.882" stroke="white" stroke-width="0.738" stroke-miterlimit="10"/>
<path d="M256.176 197.803L246.894 197.779" stroke="white" stroke-width="0.738" stroke-miterlimit="10"/>
<path d="M259.494 201.434L260.568 192.321" stroke="white" stroke-width="0.738" stroke-miterlimit="10"/>
<path d="M262.308 204.608L255.478 204.993" stroke="white" stroke-width="0.738" stroke-miterlimit="10"/>
<path d="M283.781 188.649C276.407 196.232 276.447 208.223 276.447 208.223C276.447 208.223 288.43 207.911 295.797 200.32C303.163 192.729 303.131 180.77 303.131 180.77C303.131 180.77 291.148 181.059 283.781 188.649Z" fill="#263238"/>
<path d="M276.447 208.223L303.131 180.746" stroke="white" stroke-width="0.738" stroke-miterlimit="10"/>
<path d="M293.648 190.509L293.135 184.305" stroke="white" stroke-width="0.738" stroke-miterlimit="10"/>
<path d="M289.288 195.102L299.315 193.114" stroke="white" stroke-width="0.738" stroke-miterlimit="10"/>
<path d="M286.691 197.667L286.034 188.409" stroke="white" stroke-width="0.738" stroke-miterlimit="10"/>
<path d="M283.324 201.25L292.494 201.635" stroke="white" stroke-width="0.738" stroke-miterlimit="10"/>
<path d="M280.367 204.296L279.477 197.515" stroke="white" stroke-width="0.738" stroke-miterlimit="10"/>
</svg>
